%FSTAX23Y23*%
%MOIN*%
%SFA1B1*%

%IPPOS*%
%ADD16C,0.006000*%
%LNpcb_1-1*%
%LPD*%
G54D16*
X0029Y00848D02*
X0036D01*
X0029Y00982D02*
X0036D01*
X0029Y00952D02*
Y00982D01*
X0036Y00952D02*
Y00982D01*
X0029Y00952D02*
X0036D01*
Y00848D02*
Y00878D01*
X0029Y00848D02*
Y00878D01*
X0036*
X0029Y00848D02*
X0036D01*
X0029Y00982D02*
X0036D01*
X0029Y00952D02*
Y00982D01*
X0036Y00952D02*
Y00982D01*
X0029Y00952D02*
X0036D01*
Y00848D02*
Y00878D01*
X0029Y00848D02*
Y00878D01*
X0036*
X00125Y00393D02*
X00195D01*
X00125Y00363D02*
Y00393D01*
X00195Y00363D02*
Y00393D01*
X00125Y00467D02*
X00195D01*
Y00497*
X00125Y00467D02*
Y00497D01*
X00195Y00393D02*
Y00467D01*
X00125Y00497D02*
X00195D01*
X00125Y00393D02*
Y00467D01*
Y00363D02*
X00195D01*
X00125Y00393D02*
X00195D01*
X00125Y00363D02*
Y00393D01*
X00195Y00363D02*
Y00393D01*
X00125Y00467D02*
X00195D01*
Y00497*
X00125Y00467D02*
Y00497D01*
X00195Y00393D02*
Y00467D01*
X00125Y00497D02*
X00195D01*
X00125Y00393D02*
Y00467D01*
Y00363D02*
X00195D01*
X01205Y01012D02*
X01275D01*
Y00908D02*
Y00982D01*
X01205Y00878D02*
X01275D01*
X01205Y00908D02*
Y00982D01*
X01275Y00878D02*
Y00908D01*
X01205Y00878D02*
Y00908D01*
X01275*
X01205Y00982D02*
Y01012D01*
X01275Y00982D02*
Y01012D01*
X01205Y00982D02*
X01275D01*
X01205Y01012D02*
X01275D01*
Y00908D02*
Y00982D01*
X01205Y00878D02*
X01275D01*
X01205Y00908D02*
Y00982D01*
X01275Y00878D02*
Y00908D01*
X01205Y00878D02*
Y00908D01*
X01275*
X01205Y00982D02*
Y01012D01*
X01275Y00982D02*
Y01012D01*
X01205Y00982D02*
X01275D01*
X01205Y00493D02*
X01275D01*
X01205Y00627D02*
X01275D01*
X01205Y00597D02*
Y00627D01*
X01275Y00597D02*
Y00627D01*
X01205Y00597D02*
X01275D01*
Y00493D02*
Y00523D01*
X01205Y00493D02*
Y00523D01*
X01275*
X01205Y00493D02*
X01275D01*
X01205Y00627D02*
X01275D01*
X01205Y00597D02*
Y00627D01*
X01275Y00597D02*
Y00627D01*
X01205Y00597D02*
X01275D01*
Y00493D02*
Y00523D01*
X01205Y00493D02*
Y00523D01*
X01275*
X0121Y01727D02*
X0128D01*
Y01623D02*
Y01697D01*
X0121Y01593D02*
X0128D01*
X0121Y01623D02*
Y01697D01*
X0128Y01593D02*
Y01623D01*
X0121Y01593D02*
Y01623D01*
X0128*
X0121Y01697D02*
Y01727D01*
X0128Y01697D02*
Y01727D01*
X0121Y01697D02*
X0128D01*
X0121Y01727D02*
X0128D01*
Y01623D02*
Y01697D01*
X0121Y01593D02*
X0128D01*
X0121Y01623D02*
Y01697D01*
X0128Y01593D02*
Y01623D01*
X0121Y01593D02*
Y01623D01*
X0128*
X0121Y01697D02*
Y01727D01*
X0128Y01697D02*
Y01727D01*
X0121Y01697D02*
X0128D01*
X0121Y01204D02*
X0128D01*
X0121Y01338D02*
X0128D01*
X0121Y01308D02*
Y01338D01*
X0128Y01308D02*
Y01338D01*
X0121Y01308D02*
X0128D01*
Y01204D02*
Y01234D01*
X0121Y01204D02*
Y01234D01*
X0128*
X0121Y01204D02*
X0128D01*
X0121Y01338D02*
X0128D01*
X0121Y01308D02*
Y01338D01*
X0128Y01308D02*
Y01338D01*
X0121Y01308D02*
X0128D01*
Y01204D02*
Y01234D01*
X0121Y01204D02*
Y01234D01*
X0128*
X00169Y0119D02*
Y0126D01*
X00303Y0119D02*
Y0126D01*
X00273D02*
X00303D01*
X00273Y0119D02*
X00303D01*
X00273D02*
Y0126D01*
X00169Y0119D02*
X00199D01*
X00169Y0126D02*
X00199D01*
Y0119D02*
Y0126D01*
X00169Y0119D02*
Y0126D01*
X00303Y0119D02*
Y0126D01*
X00273D02*
X00303D01*
X00273Y0119D02*
X00303D01*
X00273D02*
Y0126D01*
X00169Y0119D02*
X00199D01*
X00169Y0126D02*
X00199D01*
Y0119D02*
Y0126D01*
X0095Y00297D02*
X0102D01*
X0095Y00267D02*
Y00297D01*
X0102Y00267D02*
Y00297D01*
X0095Y00371D02*
X0102D01*
Y00401*
X0095Y00371D02*
Y00401D01*
X0102Y00297D02*
Y00371D01*
X0095Y00401D02*
X0102D01*
X0095Y00297D02*
Y00371D01*
Y00267D02*
X0102D01*
X0095Y00297D02*
X0102D01*
X0095Y00267D02*
Y00297D01*
X0102Y00267D02*
Y00297D01*
X0095Y00371D02*
X0102D01*
Y00401*
X0095Y00371D02*
Y00401D01*
X0102Y00297D02*
Y00371D01*
X0095Y00401D02*
X0102D01*
X0095Y00297D02*
Y00371D01*
Y00267D02*
X0102D01*
M02*