%FSTAX23Y23*%
%MOIN*%
%SFA1B1*%

%IPPOS*%
%ADD15C,0.010000*%
%ADD17R,0.133858X0.023622*%
%ADD18R,0.071000X0.044000*%
%ADD19R,0.044000X0.071000*%
%ADD26O,0.149606X0.078740*%
%ADD27O,0.070866X0.129921*%
%ADD28C,0.050000*%
%LNpcb_1-1*%
%LPD*%
G54D15*
X0094Y00735D02*
X01024D01*
X0103Y0074*
Y00824*
X00941Y0083D02*
X01024D01*
X0103Y00824*
X00941Y0083D02*
D01*
X0099Y0016D02*
Y00286D01*
X00721Y00823D02*
X00728Y0083D01*
X00655Y00823D02*
X00721D01*
X0065Y00817D02*
X00655Y00823D01*
X0065Y0073D02*
Y00817D01*
X00655Y00725D02*
X0079D01*
X0065Y0073D02*
X00655Y00725D01*
X0009Y0133D02*
X00275D01*
X00525*
X00275D02*
Y01428D01*
Y01665D02*
X00454D01*
X00474Y01685*
X00485*
X00239Y01665D02*
X00275D01*
X00181Y01607D02*
X00239Y01665D01*
X00181Y01571D02*
Y01607D01*
X00137Y01527D02*
X00181Y01571D01*
X00091Y01527D02*
X00137D01*
X0024Y01684D02*
Y01685D01*
X00207Y01651D02*
X0024Y01684D01*
X0068Y0098D02*
X00728D01*
X00673Y00986D02*
X0068Y0098D01*
X00673Y00986D02*
Y01079D01*
X00667Y01085D02*
X00673Y01079D01*
X0061Y01085D02*
X00667D01*
X00365Y01116D02*
X0037Y01122D01*
X0005Y01116D02*
X00365D01*
X0037Y01122D02*
Y01219D01*
X00045Y0086D02*
Y0111D01*
X0005Y01116*
X00365Y01225D02*
X0037Y01219D01*
X00295Y01225D02*
X00365D01*
X00165Y00155D02*
X0087D01*
X00984*
X0087D02*
Y00729D01*
X0016Y0016D02*
Y00371D01*
Y0016D02*
X00165Y00155D01*
X0016Y00489D02*
Y01044D01*
X00985Y00393D02*
Y00575D01*
X00941Y0098D02*
Y01799D01*
X0115Y01059D02*
X01155Y01065D01*
X01235*
X0124Y0107*
Y01004D02*
Y0107D01*
X01144Y0093D02*
X0115Y00935D01*
Y01059*
X0124Y0107D02*
Y01207D01*
X00556Y0093D02*
X00728D01*
X00525Y00885D02*
X00723D01*
X0044Y01045D02*
X00556Y0093D01*
X00496Y00856D02*
X00525Y00885D01*
X0033Y01045D02*
X0044D01*
X00723Y00885D02*
X00728Y0088D01*
Y0093D02*
X00836D01*
X00886Y0088*
X00941*
X0094Y00665D02*
Y00735D01*
X0087Y00729D02*
X00875Y00735D01*
X0094*
X00324Y00855D02*
X00325Y00856D01*
X0023Y00855D02*
X00324D01*
X00165Y0105D02*
X00315D01*
X0016Y01044D02*
X00165Y0105D01*
X00045Y0086D02*
X0005Y00855D01*
X00085*
X00941Y0093D02*
X01144D01*
X0079Y01115D02*
X00795Y0112D01*
X00525Y0133D02*
X00789D01*
X00795Y0112D02*
Y01324D01*
X00789Y0133D02*
X00795Y01324D01*
X00525Y01799D02*
X0053Y01805D01*
X00947*
X00525Y0133D02*
Y01799D01*
X0009Y0123D02*
Y0133D01*
X00095Y01225D02*
X00177D01*
X0009Y0123D02*
X00095Y01225D01*
X00208Y01448D02*
X0024D01*
X00947Y01805D02*
X01159D01*
X00941Y01799D02*
X00947Y01805D01*
X01159D02*
X01245Y01719D01*
X0099Y0016D02*
X00995Y00155D01*
X0124Y0016D02*
Y00501D01*
X01234Y00155D02*
X0124Y0016D01*
X00995Y00155D02*
X01234D01*
X00984D02*
X0099Y0016D01*
X00315Y0105D02*
X00325Y0104D01*
Y00856D02*
X00496D01*
X00325Y0104D02*
X0033Y01045D01*
X00325Y00974D02*
Y0104D01*
X0124Y00619D02*
Y00886D01*
Y01207D02*
X01245Y01212D01*
G54D17*
X00728Y0083D03*
Y0088D03*
Y0093D03*
Y0098D03*
X00941D03*
Y0093D03*
Y0088D03*
Y0083D03*
G54D18*
X00325Y00974D03*
Y00856D03*
X0016Y00371D03*
Y00489D03*
X0124Y00886D03*
Y01004D03*
Y00619D03*
Y00501D03*
X01245Y01601D03*
Y01719D03*
Y0133D03*
Y01212D03*
X00985Y00275D03*
Y00393D03*
G54D19*
X00295Y01225D03*
X00177D03*
G54D26*
X00275Y01428D03*
Y01665D03*
G54D27*
X00091Y01527D03*
G54D28*
X00985Y00575D03*
X0061Y01085D03*
X0094Y00665D03*
X0023Y00855D03*
X00085D03*
X0079Y01115D03*
Y00725D03*
X00485Y01685D03*
M02*