%FSTAX23Y23*%
%MOIN*%
%SFA1B1*%

%IPPOS*%
%ADD10C,0.020000*%
%ADD11C,0.011811*%
%ADD12C,0.015748*%
%ADD13C,0.007874*%
%ADD14C,0.005000*%
%ADD15C,0.010000*%
%ADD16C,0.006000*%
%LNpcb_1-1*%
%LPD*%
G54D10*
X00947Y0079D02*
D01*
X00947Y0079*
X00947Y0079*
X00947Y00791*
X00947Y00791*
X00946Y00791*
X00946Y00792*
X00946Y00792*
X00946Y00792*
X00946Y00792*
X00946Y00793*
X00945Y00793*
X00945Y00793*
X00945Y00793*
X00945Y00794*
X00944Y00794*
X00944Y00794*
X00944Y00794*
X00943Y00794*
X00943Y00794*
X00943Y00794*
X00942Y00794*
X00942Y00794*
X00942*
X00941Y00794*
X00941Y00794*
X00941Y00794*
X0094Y00794*
X0094Y00794*
X0094Y00794*
X00939Y00794*
X00939Y00794*
X00939Y00793*
X00938Y00793*
X00938Y00793*
X00938Y00793*
X00938Y00792*
X00938Y00792*
X00937Y00792*
X00937Y00792*
X00937Y00791*
X00937Y00791*
X00937Y00791*
X00937Y0079*
X00937Y0079*
X00937Y0079*
X00937Y00789*
X00937Y00789*
X00937Y00788*
X00937Y00788*
X00937Y00788*
X00937Y00787*
X00937Y00787*
X00938Y00787*
X00938Y00787*
X00938Y00786*
X00938Y00786*
X00938Y00786*
X00939Y00786*
X00939Y00785*
X00939Y00785*
X0094Y00785*
X0094Y00785*
X0094Y00785*
X00941Y00785*
X00941Y00785*
X00941Y00785*
X00942Y00785*
X00942*
X00942Y00785*
X00943Y00785*
X00943Y00785*
X00943Y00785*
X00944Y00785*
X00944Y00785*
X00944Y00785*
X00945Y00785*
X00945Y00786*
X00945Y00786*
X00945Y00786*
X00946Y00786*
X00946Y00787*
X00946Y00787*
X00946Y00787*
X00946Y00787*
X00946Y00788*
X00947Y00788*
X00947Y00788*
X00947Y00789*
X00947Y00789*
X00947Y0079*
G54D11*
X00854Y00832D02*
D01*
X00854Y00832*
X00854Y00832*
X00854Y00832*
X00854Y00833*
X00854Y00833*
X00854Y00833*
X00854Y00833*
X00854Y00834*
X00854Y00834*
X00854Y00834*
X00853Y00834*
X00853Y00834*
X00853Y00835*
X00853Y00835*
X00852Y00835*
X00852Y00835*
X00852Y00835*
X00852Y00835*
X00851Y00835*
X00851Y00835*
X00851Y00835*
X00851Y00835*
X0085*
X0085Y00835*
X0085Y00835*
X0085Y00835*
X00849Y00835*
X00849Y00835*
X00849Y00835*
X00849Y00835*
X00848Y00835*
X00848Y00835*
X00848Y00834*
X00848Y00834*
X00847Y00834*
X00847Y00834*
X00847Y00834*
X00847Y00833*
X00847Y00833*
X00847Y00833*
X00847Y00833*
X00847Y00832*
X00847Y00832*
X00847Y00832*
X00847Y00832*
X00847Y00831*
X00847Y00831*
X00847Y00831*
X00847Y0083*
X00847Y0083*
X00847Y0083*
X00847Y0083*
X00847Y00829*
X00847Y00829*
X00847Y00829*
X00848Y00829*
X00848Y00829*
X00848Y00828*
X00848Y00828*
X00849Y00828*
X00849Y00828*
X00849Y00828*
X00849Y00828*
X0085Y00828*
X0085Y00828*
X0085Y00828*
X0085Y00828*
X00851*
X00851Y00828*
X00851Y00828*
X00851Y00828*
X00852Y00828*
X00852Y00828*
X00852Y00828*
X00852Y00828*
X00853Y00828*
X00853Y00828*
X00853Y00829*
X00853Y00829*
X00854Y00829*
X00854Y00829*
X00854Y00829*
X00854Y0083*
X00854Y0083*
X00854Y0083*
X00854Y0083*
X00854Y00831*
X00854Y00831*
X00854Y00831*
X00854Y00832*
G54D12*
X00281Y01326D02*
D01*
X00281Y01327*
X00281Y01327*
X00281Y01328*
X00281Y01328*
X00281Y01329*
X00281Y01329*
X0028Y0133*
X0028Y0133*
X0028Y01331*
X0028Y01331*
X00279Y01332*
X00279Y01332*
X00278Y01332*
X00278Y01333*
X00277Y01333*
X00277Y01333*
X00276Y01334*
X00276Y01334*
X00275Y01334*
X00275Y01334*
X00274Y01334*
X00274Y01334*
X00273*
X00273Y01334*
X00272Y01334*
X00272Y01334*
X00271Y01334*
X00271Y01334*
X0027Y01333*
X0027Y01333*
X00269Y01333*
X00269Y01332*
X00268Y01332*
X00268Y01332*
X00267Y01331*
X00267Y01331*
X00267Y0133*
X00267Y0133*
X00266Y01329*
X00266Y01329*
X00266Y01328*
X00266Y01328*
X00266Y01327*
X00266Y01327*
X00266Y01326*
X00266Y01326*
X00266Y01325*
X00266Y01325*
X00266Y01324*
X00266Y01324*
X00266Y01323*
X00267Y01323*
X00267Y01322*
X00267Y01322*
X00267Y01321*
X00268Y01321*
X00268Y0132*
X00269Y0132*
X00269Y0132*
X0027Y01319*
X0027Y01319*
X00271Y01319*
X00271Y01319*
X00272Y01319*
X00272Y01319*
X00273Y01318*
X00273Y01318*
X00274*
X00274Y01318*
X00275Y01319*
X00275Y01319*
X00276Y01319*
X00276Y01319*
X00277Y01319*
X00277Y01319*
X00278Y0132*
X00278Y0132*
X00279Y0132*
X00279Y01321*
X0028Y01321*
X0028Y01322*
X0028Y01322*
X0028Y01323*
X00281Y01323*
X00281Y01324*
X00281Y01324*
X00281Y01325*
X00281Y01325*
X00281Y01326*
X00281Y01326*
G54D13*
X00772Y00796D02*
X00897D01*
X00772Y01014D02*
X00898D01*
G54D14*
X00097Y01614D02*
Y01967D01*
X0037Y014D02*
X00452D01*
Y01967*
X00097D02*
X00452D01*
X00097Y014D02*
X00188D01*
X00097D02*
Y01447D01*
G54D15*
X00275Y01663D02*
Y01664D01*
X01214Y00846D02*
X0127D01*
X01219Y01561D02*
X01275D01*
X00645Y01107D02*
Y01057D01*
X00654Y01048*
X00674*
X00684Y01057*
Y01107*
X00704Y01048D02*
X00724D01*
X00714*
Y01107*
X00704Y01097*
X00062Y02D02*
Y02059D01*
X00091*
X00101Y02049*
Y02029*
X00091Y02019*
X00062*
X00121Y02D02*
X00141D01*
X00131*
Y02059*
X00121Y02049*
X00254Y0084D02*
X00195D01*
Y0087*
X00205Y0088*
X00225*
X00234Y0087*
Y0084*
Y0086D02*
X00254Y0088D01*
X00205Y00899D02*
X00195Y00909D01*
Y00929*
X00205Y00939*
X00215*
X00225Y00929*
Y00919*
Y00929*
X00234Y00939*
X00244*
X00254Y00929*
Y00909*
X00244Y00899*
X00169Y00594D02*
X00159Y00604D01*
X00139*
X0013Y00594*
Y00554*
X00139Y00545*
X00159*
X00169Y00554*
X00189Y00545D02*
X00209D01*
X00199*
Y00604*
X00189Y00594*
X01315Y0082D02*
X01374D01*
Y0086*
X01315Y0092D02*
Y0088D01*
X01374*
Y0092*
X01345Y0088D02*
Y009D01*
X01315Y00939D02*
X01374D01*
Y00969*
X01364Y00979*
X01325*
X01315Y00969*
Y00939*
X01374Y01039D02*
Y00999D01*
X01335Y01039*
X01325*
X01315Y01029*
Y01009*
X01325Y00999*
X01315Y0051D02*
Y00569D01*
X01345*
X01355Y00559*
Y0054*
X01345Y0053*
X01315*
X01335D02*
X01355Y0051D01*
X01404D02*
Y00569D01*
X01374Y0054*
X01414*
X01201Y01834D02*
Y01775D01*
X0124*
X013Y01834D02*
X0126D01*
Y01775*
X013*
X0126Y01804D02*
X0128D01*
X0132Y01834D02*
Y01775D01*
X0135*
X0136Y01784*
Y01824*
X0135Y01834*
X0132*
X0138Y01775D02*
X014D01*
X0139*
Y01834*
X0138Y01824*
X01207Y01386D02*
Y01445D01*
X01236*
X01246Y01435*
Y01415*
X01236Y01405*
X01207*
X01226D02*
X01246Y01386D01*
X01306D02*
X01266D01*
X01306Y01425*
Y01435*
X01296Y01445*
X01276*
X01266Y01435*
X00995Y00498D02*
X00985Y00508D01*
X00965*
X00956Y00498*
Y00458*
X00965Y00449*
X00985*
X00995Y00458*
X01055Y00449D02*
X01015D01*
X01055Y00488*
Y00498*
X01045Y00508*
X01025*
X01015Y00498*
G54D16*
X0028Y00896D02*
Y00934D01*
X00369Y00896D02*
Y00934D01*
X00195Y00411D02*
Y00449D01*
X00125Y00411D02*
Y00449D01*
X01291Y00889D02*
Y00999D01*
X01188Y00888D02*
Y00998D01*
X01195Y00541D02*
Y00579D01*
X01284Y00541D02*
Y00579D01*
X01296Y01604D02*
Y01714D01*
X01193Y01603D02*
Y01713D01*
X012Y01252D02*
Y0129D01*
X01289Y01252D02*
Y0129D01*
X00217Y01269D02*
X00255D01*
X00217Y0118D02*
X00255D01*
X0102Y00315D02*
Y00353D01*
X0095Y00315D02*
Y00353D01*
M02*