G04*
G04 #@! TF.GenerationSoftware,Altium Limited,Altium Designer,23.5.1 (21)*
G04*
G04 Layer_Color=65535*
%FSLAX44Y44*%
%MOMM*%
G71*
G04*
G04 #@! TF.SameCoordinates,ED751DBE-17B5-46BE-BD0A-66C7010D1C8E*
G04*
G04*
G04 #@! TF.FilePolarity,Positive*
G04*
G01*
G75*
%ADD10C,0.5080*%
%ADD11C,0.3000*%
%ADD12C,0.4000*%
%ADD13C,0.2000*%
%ADD14C,0.1270*%
%ADD15C,0.2540*%
%ADD16C,0.1524*%
D10*
X240590Y200660D02*
G03*
X240590Y200660I-1250J0D01*
G01*
D11*
X217154Y211328D02*
G03*
X217154Y211328I-1000J0D01*
G01*
D12*
X71596Y337002D02*
G03*
X71596Y337002I-2000J0D01*
G01*
D13*
X196088Y202184D02*
X228088D01*
X196092Y257556D02*
X228092D01*
D14*
X24850Y410180D02*
Y499680D01*
X93980Y355680D02*
X114850D01*
Y499680D01*
X24850D02*
X114850D01*
X24850Y355680D02*
X47752D01*
X24850D02*
Y367736D01*
D15*
X69850Y422600D02*
Y422680D01*
X308356Y214884D02*
X322580D01*
X309626Y396494D02*
X323850D01*
X163830Y281427D02*
Y268731D01*
X166369Y266192D01*
X171448D01*
X173987Y268731D01*
Y281427D01*
X179065Y266192D02*
X184143D01*
X181604D01*
Y281427D01*
X179065Y278888D01*
X15748Y508000D02*
Y523235D01*
X23365D01*
X25905Y520696D01*
Y515617D01*
X23365Y513078D01*
X15748D01*
X30983Y508000D02*
X36061D01*
X33522D01*
Y523235D01*
X30983Y520696D01*
X64767Y213364D02*
X49532D01*
Y220982D01*
X52072Y223521D01*
X57150D01*
X59689Y220982D01*
Y213364D01*
Y218442D02*
X64767Y223521D01*
X52072Y228599D02*
X49532Y231138D01*
Y236217D01*
X52072Y238756D01*
X54611D01*
X57150Y236217D01*
Y233678D01*
Y236217D01*
X59689Y238756D01*
X62228D01*
X64767Y236217D01*
Y231138D01*
X62228Y228599D01*
X43177Y151126D02*
X40637Y153665D01*
X35559D01*
X33020Y151126D01*
Y140969D01*
X35559Y138430D01*
X40637D01*
X43177Y140969D01*
X48255Y138430D02*
X53333D01*
X50794D01*
Y153665D01*
X48255Y151126D01*
X334012Y208289D02*
X349248D01*
Y218446D01*
X334012Y233681D02*
Y223524D01*
X349248D01*
Y233681D01*
X341630Y223524D02*
Y228603D01*
X334012Y238759D02*
X349248D01*
Y246377D01*
X346708Y248916D01*
X336552D01*
X334012Y246377D01*
Y238759D01*
X349248Y264151D02*
Y253994D01*
X339091Y264151D01*
X336552D01*
X334012Y261612D01*
Y256533D01*
X336552Y253994D01*
X334014Y129543D02*
Y144777D01*
X341632D01*
X344171Y142238D01*
Y137160D01*
X341632Y134621D01*
X334014D01*
X339092D02*
X344171Y129543D01*
X356867D02*
Y144777D01*
X349249Y137160D01*
X359406D01*
X305054Y466085D02*
Y450850D01*
X315211D01*
X330446Y466085D02*
X320289D01*
Y450850D01*
X330446D01*
X320289Y458467D02*
X325367D01*
X335524Y466085D02*
Y450850D01*
X343142D01*
X345681Y453389D01*
Y463546D01*
X343142Y466085D01*
X335524D01*
X350759Y450850D02*
X355838D01*
X353298D01*
Y466085D01*
X350759Y463546D01*
X306578Y352044D02*
Y367279D01*
X314195D01*
X316735Y364740D01*
Y359661D01*
X314195Y357122D01*
X306578D01*
X311656D02*
X316735Y352044D01*
X331970D02*
X321813D01*
X331970Y362201D01*
Y364740D01*
X329431Y367279D01*
X324352D01*
X321813Y364740D01*
X252981Y126742D02*
X250441Y129281D01*
X245363D01*
X242824Y126742D01*
Y116585D01*
X245363Y114046D01*
X250441D01*
X252981Y116585D01*
X268216Y114046D02*
X258059D01*
X268216Y124203D01*
Y126742D01*
X265677Y129281D01*
X260598D01*
X258059Y126742D01*
D16*
X71150Y227584D02*
Y237236D01*
X93950Y227584D02*
Y237236D01*
X49530Y104394D02*
Y114046D01*
X31750Y104394D02*
Y114046D01*
X327960Y225806D02*
Y253746D01*
X301960Y225552D02*
Y253492D01*
X303560Y137414D02*
Y147066D01*
X326360Y137414D02*
Y147066D01*
X329230Y407416D02*
Y435356D01*
X303230Y407162D02*
Y435102D01*
X304830Y318008D02*
Y327660D01*
X327630Y318008D02*
Y327660D01*
X55118Y322550D02*
X64770D01*
X55118Y299750D02*
X64770D01*
X259080Y80010D02*
Y89662D01*
X241300Y80010D02*
Y89662D01*
M02*
