G04*
G04 #@! TF.GenerationSoftware,Altium Limited,Altium Designer,23.5.1 (21)*
G04*
G04 Layer_Physical_Order=2*
G04 Layer_Color=16711680*
%FSLAX44Y44*%
%MOMM*%
G71*
G04*
G04 #@! TF.SameCoordinates,ED751DBE-17B5-46BE-BD0A-66C7010D1C8E*
G04*
G04*
G04 #@! TF.FilePolarity,Positive*
G04*
G01*
G75*
%ADD15C,0.2540*%
%ADD26O,3.8000X2.0000*%
%ADD27O,1.8000X3.3000*%
%ADD28C,1.2700*%
G36*
X383540D02*
X0D01*
Y508000D01*
X383540D01*
Y0D01*
D02*
G37*
%LPC*%
G36*
X121920Y436853D02*
X119759Y436274D01*
X117731Y435104D01*
X116076Y433449D01*
X114906Y431421D01*
X114327Y429260D01*
X121920D01*
Y436853D01*
D02*
G37*
G36*
X78850Y435558D02*
X71120D01*
Y424180D01*
X91331D01*
X91067Y426184D01*
X89804Y429234D01*
X87794Y431854D01*
X85174Y433864D01*
X82124Y435127D01*
X78850Y435558D01*
D02*
G37*
G36*
X68580D02*
X60850D01*
X57576Y435127D01*
X54526Y433864D01*
X51906Y431854D01*
X49896Y429234D01*
X48633Y426184D01*
X48369Y424180D01*
X68580D01*
Y435558D01*
D02*
G37*
G36*
X121920Y426720D02*
X114327D01*
X114906Y424559D01*
X116076Y422531D01*
X117731Y420876D01*
X119759Y419706D01*
X121920Y419127D01*
Y426720D01*
D02*
G37*
G36*
X91331Y421640D02*
X71120D01*
Y410262D01*
X78850D01*
X82124Y410693D01*
X85174Y411956D01*
X87794Y413966D01*
X89804Y416586D01*
X91067Y419636D01*
X91331Y421640D01*
D02*
G37*
G36*
X68580D02*
X48369D01*
X48633Y419636D01*
X49896Y416586D01*
X51906Y413966D01*
X54526Y411956D01*
X57576Y410693D01*
X60850Y410262D01*
X68580D01*
Y421640D01*
D02*
G37*
G36*
X24620Y406882D02*
Y389180D01*
X34990D01*
Y395410D01*
X34593Y398423D01*
X33430Y401230D01*
X31580Y403640D01*
X29170Y405490D01*
X26363Y406653D01*
X24620Y406882D01*
D02*
G37*
G36*
X22080D02*
X20337Y406653D01*
X17530Y405490D01*
X15120Y403640D01*
X13270Y401230D01*
X12107Y398423D01*
X11710Y395410D01*
Y389180D01*
X22080D01*
Y406882D01*
D02*
G37*
G36*
X34990Y386640D02*
X24620D01*
Y368938D01*
X26363Y369167D01*
X29170Y370330D01*
X31580Y372180D01*
X33430Y374590D01*
X34593Y377397D01*
X34990Y380410D01*
Y386640D01*
D02*
G37*
G36*
X22080D02*
X11710D01*
Y380410D01*
X12107Y377397D01*
X13270Y374590D01*
X15120Y372180D01*
X17530Y370330D01*
X20337Y369167D01*
X22080Y368938D01*
Y386640D01*
D02*
G37*
G36*
X78850Y375558D02*
X60850D01*
X57576Y375127D01*
X54526Y373864D01*
X51906Y371854D01*
X49896Y369234D01*
X48633Y366184D01*
X48202Y362910D01*
X48633Y359636D01*
X49896Y356586D01*
X51906Y353966D01*
X54526Y351956D01*
X57576Y350693D01*
X60850Y350262D01*
X78850D01*
X82124Y350693D01*
X85174Y351956D01*
X87794Y353966D01*
X89804Y356586D01*
X91067Y359636D01*
X91498Y362910D01*
X91067Y366184D01*
X89804Y369234D01*
X87794Y371854D01*
X85174Y373864D01*
X82124Y375127D01*
X78850Y375558D01*
D02*
G37*
G36*
X59590Y226060D02*
X57250D01*
X54989Y225454D01*
X52961Y224284D01*
X51306Y222629D01*
X50398Y221055D01*
X29613D01*
X28704Y222629D01*
X27049Y224284D01*
X25021Y225454D01*
X22760Y226060D01*
X20420D01*
X18159Y225454D01*
X16131Y224284D01*
X14476Y222629D01*
X13306Y220601D01*
X12700Y218340D01*
Y216000D01*
X13306Y213739D01*
X14476Y211711D01*
X16131Y210056D01*
X18159Y208886D01*
X20420Y208280D01*
X22760D01*
X25021Y208886D01*
X27049Y210056D01*
X28704Y211711D01*
X29613Y213285D01*
X50398D01*
X51306Y211711D01*
X52961Y210056D01*
X54989Y208886D01*
X57250Y208280D01*
X59590D01*
X61851Y208886D01*
X63879Y210056D01*
X65534Y211711D01*
X66704Y213739D01*
X67310Y216000D01*
Y218340D01*
X66704Y220601D01*
X65534Y222629D01*
X63879Y224284D01*
X61851Y225454D01*
X59590Y226060D01*
D02*
G37*
G36*
X201830Y292100D02*
X199490D01*
X197229Y291494D01*
X195201Y290324D01*
X193546Y288669D01*
X192376Y286641D01*
X191770Y284380D01*
Y282040D01*
X192376Y279779D01*
X193546Y277751D01*
X195201Y276096D01*
X196775Y275187D01*
Y192173D01*
X195201Y191264D01*
X193546Y189609D01*
X192376Y187581D01*
X191770Y185320D01*
Y182980D01*
X192376Y180719D01*
X193546Y178691D01*
X195201Y177036D01*
X197229Y175866D01*
X199490Y175260D01*
X201830D01*
X204091Y175866D01*
X206119Y177036D01*
X207774Y178691D01*
X208944Y180719D01*
X209550Y182980D01*
Y185320D01*
X208944Y187581D01*
X207774Y189609D01*
X206119Y191264D01*
X204545Y192173D01*
Y275187D01*
X206119Y276096D01*
X207774Y277751D01*
X208944Y279779D01*
X209550Y282040D01*
Y284380D01*
X208944Y286641D01*
X207774Y288669D01*
X206119Y290324D01*
X204091Y291494D01*
X201830Y292100D01*
D02*
G37*
G36*
X124460Y436853D02*
Y427990D01*
Y419127D01*
X126621Y419706D01*
X128649Y420876D01*
X130304Y422531D01*
X131213Y424105D01*
X275251D01*
X278055Y421301D01*
Y172795D01*
X246782D01*
X245874Y174369D01*
X244219Y176024D01*
X242191Y177194D01*
X240030Y177773D01*
Y168910D01*
Y160047D01*
X242191Y160626D01*
X244219Y161796D01*
X245874Y163451D01*
X246782Y165025D01*
X280452D01*
X281939Y165321D01*
X283199Y166163D01*
X284687Y167651D01*
X285529Y168911D01*
X285825Y170398D01*
Y422910D01*
X285529Y424397D01*
X284687Y425657D01*
X279607Y430737D01*
X278347Y431579D01*
X276860Y431875D01*
X131213D01*
X130304Y433449D01*
X128649Y435104D01*
X126621Y436274D01*
X124460Y436853D01*
D02*
G37*
G36*
X237490Y177773D02*
X235329Y177194D01*
X233301Y176024D01*
X231646Y174369D01*
X230476Y172341D01*
X229897Y170180D01*
X237490D01*
Y177773D01*
D02*
G37*
G36*
Y167640D02*
X229897D01*
X230476Y165479D01*
X231646Y163451D01*
X233301Y161796D01*
X235329Y160626D01*
X237490Y160047D01*
Y167640D01*
D02*
G37*
G36*
X156110Y284480D02*
X153770D01*
X151509Y283874D01*
X149481Y282704D01*
X147826Y281049D01*
X146656Y279021D01*
X146050Y276760D01*
Y274420D01*
X146656Y272159D01*
X147826Y270131D01*
X149481Y268476D01*
X151055Y267568D01*
Y147538D01*
X151351Y146051D01*
X152193Y144791D01*
X153681Y143303D01*
X154941Y142461D01*
X156428Y142165D01*
X242167D01*
X243076Y140591D01*
X244731Y138936D01*
X246759Y137766D01*
X249020Y137160D01*
X251360D01*
X253621Y137766D01*
X255649Y138936D01*
X257304Y140591D01*
X258474Y142619D01*
X259080Y144880D01*
Y147220D01*
X258474Y149481D01*
X257304Y151509D01*
X255649Y153164D01*
X253621Y154334D01*
X251360Y154940D01*
X249020D01*
X246759Y154334D01*
X244731Y153164D01*
X243076Y151509D01*
X242167Y149935D01*
X158825D01*
Y267568D01*
X160399Y268476D01*
X162054Y270131D01*
X163224Y272159D01*
X163830Y274420D01*
Y276760D01*
X163224Y279021D01*
X162054Y281049D01*
X160399Y282704D01*
X158371Y283874D01*
X156110Y284480D01*
D02*
G37*
%LPD*%
D15*
X276860Y427990D02*
X281940Y422910D01*
X238760Y168910D02*
X280452D01*
X281940Y170398D01*
Y422910D01*
X154940Y147538D02*
Y275590D01*
X156428Y146050D02*
X250190D01*
X154940Y147538D02*
X156428Y146050D01*
X123190Y427990D02*
X276860D01*
X21590Y217170D02*
X58420D01*
X200660Y184150D02*
Y283210D01*
D26*
X69850Y362910D02*
D03*
Y422910D02*
D03*
D27*
X23350Y387910D02*
D03*
D28*
X250190Y146050D02*
D03*
X154940Y275590D02*
D03*
X238760Y168910D02*
D03*
X58420Y217170D02*
D03*
X21590D02*
D03*
X200660Y283210D02*
D03*
Y184150D02*
D03*
X123190Y427990D02*
D03*
M02*
