%FSTAX23Y23*%
%MOIN*%
%SFA1B1*%

%IPPOS*%
%ADD19C,0.088582*%
%ADD20O,0.120000X0.060000*%
%ADD21C,0.066000*%
%ADD22R,0.066000X0.066000*%
%ADD23C,0.129921*%
%ADD24C,0.012000*%
%LNpcb_t3-1*%
%LPD*%
G36*
X03115Y0006D02*
X0309Y00035D01*
X0003*
X0002Y02305*
X00035Y0232*
X03115*
Y0006*
G37*
%LNpcb_t3-2*%
%LPC*%
G36*
X01395Y02178D02*
X01395D01*
Y0214*
X01433*
Y0214*
X0143Y02151*
X01424Y02161*
X01416Y02169*
X01406Y02175*
X01395Y02178*
G37*
G36*
X01295D02*
X01295D01*
Y0214*
X01333*
Y0214*
X0133Y02151*
X01324Y02161*
X01316Y02169*
X01306Y02175*
X01295Y02178*
G37*
G36*
X01385D02*
X01384D01*
X01373Y02175*
X01363Y02169*
X01355Y02161*
X01349Y02151*
X01347Y0214*
Y0214*
X01385*
Y02178*
G37*
G36*
X01285D02*
X01284D01*
X01273Y02175*
X01263Y02169*
X01255Y02161*
X01249Y02151*
X01247Y0214*
Y0214*
X01285*
Y02178*
G37*
G36*
X01933D02*
X01847D01*
Y02092*
X01933*
Y02178*
G37*
G36*
X01795D02*
X01784D01*
X01773Y02175*
X01763Y02169*
X01755Y02161*
X01749Y02151*
X01747Y0214*
Y02129*
X01749Y02118*
X01755Y02108*
X01763Y021*
X01773Y02094*
X01784Y02092*
X01795*
X01806Y02094*
X01816Y021*
X01824Y02108*
X0183Y02118*
X01833Y02129*
Y0214*
X0183Y02151*
X01824Y02161*
X01816Y02169*
X01806Y02175*
X01795Y02178*
G37*
G36*
X01695D02*
X01684D01*
X01673Y02175*
X01663Y02169*
X01655Y02161*
X01649Y02151*
X01647Y0214*
Y02129*
X01649Y02118*
X01655Y02108*
X01663Y021*
X01673Y02094*
X01684Y02092*
X01695*
X01706Y02094*
X01716Y021*
X01724Y02108*
X0173Y02118*
X01733Y02129*
Y0214*
X0173Y02151*
X01724Y02161*
X01716Y02169*
X01706Y02175*
X01695Y02178*
G37*
G36*
X01595D02*
X01584D01*
X01573Y02175*
X01563Y02169*
X01555Y02161*
X01549Y02151*
X01547Y0214*
Y02129*
X01549Y02118*
X01555Y02108*
X01563Y021*
X01573Y02094*
X01584Y02092*
X01595*
X01606Y02094*
X01616Y021*
X01624Y02108*
X0163Y02118*
X01633Y02129*
Y0214*
X0163Y02151*
X01624Y02161*
X01616Y02169*
X01606Y02175*
X01595Y02178*
G37*
G36*
X01433Y0213D02*
X01395D01*
Y02092*
X01395*
X01406Y02094*
X01416Y021*
X01424Y02108*
X0143Y02118*
X01433Y02129*
Y0213*
G37*
G36*
X01385D02*
X01347D01*
Y02129*
X01349Y02118*
X01355Y02108*
X01363Y021*
X01373Y02094*
X01384Y02092*
X01385*
Y0213*
G37*
G36*
X01333D02*
X01295D01*
Y02092*
X01295*
X01306Y02094*
X01316Y021*
X01324Y02108*
X0133Y02118*
X01333Y02129*
Y0213*
G37*
G36*
X01285D02*
X01247D01*
Y02129*
X01249Y02118*
X01255Y02108*
X01263Y021*
X01273Y02094*
X01284Y02092*
X01285*
Y0213*
G37*
G36*
X00795Y02178D02*
X00784D01*
X00773Y02175*
X00763Y02169*
X00755Y02161*
X00749Y02151*
X00747Y0214*
Y02129*
X00749Y02118*
X00755Y02108*
X00763Y021*
X00773Y02094*
X00784Y02092*
X00795*
X00806Y02094*
X00816Y021*
X00824Y02108*
X0083Y02118*
X00833Y02129*
Y0214*
X0083Y02151*
X00824Y02161*
X00816Y02169*
X00806Y02175*
X00795Y02178*
G37*
G36*
X00695D02*
X00684D01*
X00673Y02175*
X00663Y02169*
X00655Y02161*
X00649Y02151*
X00647Y0214*
Y02129*
X00649Y02118*
X00655Y02108*
X00663Y021*
X00673Y02094*
X00684Y02092*
X00695*
X00706Y02094*
X00716Y021*
X00724Y02108*
X0073Y02118*
X00733Y02129*
Y0214*
X0073Y02151*
X00724Y02161*
X00716Y02169*
X00706Y02175*
X00695Y02178*
G37*
G36*
X00595D02*
X00584D01*
X00573Y02175*
X00563Y02169*
X00555Y02161*
X00549Y02151*
X00547Y0214*
Y02129*
X00549Y02118*
X00555Y02108*
X00563Y021*
X00573Y02094*
X00584Y02092*
X00595*
X00606Y02094*
X00616Y021*
X00624Y02108*
X0063Y02118*
X00633Y02129*
Y0214*
X0063Y02151*
X00624Y02161*
X00616Y02169*
X00606Y02175*
X00595Y02178*
G37*
G36*
X00495D02*
X00484D01*
X00473Y02175*
X00463Y02169*
X00455Y02161*
X00449Y02151*
X00447Y0214*
Y02129*
X00449Y02118*
X00455Y02108*
X00463Y021*
X00473Y02094*
X00484Y02092*
X00495*
X00506Y02094*
X00516Y021*
X00524Y02108*
X0053Y02118*
X00533Y02129*
Y0214*
X0053Y02151*
X00524Y02161*
X00516Y02169*
X00506Y02175*
X00495Y02178*
G37*
G36*
X02447Y02209D02*
X02432D01*
X02418Y02207*
X02404Y02201*
X02392Y02193*
X02381Y02182*
X02373Y0217*
X02367Y02156*
X02365Y02142*
Y02127*
X02367Y02113*
X02373Y02099*
X02381Y02087*
X02392Y02076*
X02404Y02068*
X02418Y02062*
X02432Y0206*
X02447*
X02461Y02062*
X02475Y02068*
X02487Y02076*
X02498Y02087*
X02506Y02099*
X02512Y02113*
X02514Y02127*
Y02142*
X02512Y02156*
X02506Y0217*
X02498Y02182*
X02487Y02193*
X02475Y02201*
X02461Y02207*
X02447Y02209*
G37*
G36*
X00895Y02178D02*
X00884D01*
X00873Y02175*
X00863Y02169*
X00855Y02161*
X00849Y02151*
X00847Y0214*
Y02129*
X00849Y02118*
X00855Y02108*
X00863Y021*
X00873Y02094*
X00873Y02094*
Y01901*
X00863Y01891*
X00853Y01894*
X00839*
X00825Y0189*
X00813Y01883*
X00803Y01873*
X00795Y0186*
X00792Y01847*
Y01832*
X00795Y01819*
X00803Y01806*
X00813Y01796*
X00825Y01789*
X00839Y01785*
X00853*
X00867Y01789*
X00879Y01796*
X0089Y01806*
X00897Y01819*
X009Y01832*
Y01847*
X00897Y0186*
X0089Y01872*
X00901Y01883*
X00905Y01888*
X00906Y01895*
Y02094*
X00906Y02094*
X00916Y021*
X00924Y02108*
X0093Y02118*
X00933Y02129*
Y0214*
X0093Y02151*
X00924Y02161*
X00916Y02169*
X00906Y02175*
X00895Y02178*
G37*
G36*
X00397Y02009D02*
X00382D01*
X00368Y02007*
X00354Y02001*
X00342Y01993*
X00331Y01982*
X00323Y0197*
X00317Y01956*
X00315Y01942*
Y01927*
X00317Y01913*
X00323Y01899*
X00331Y01887*
X00342Y01876*
X00354Y01868*
X00368Y01862*
X00382Y0186*
X00397*
X00411Y01862*
X00425Y01868*
X00437Y01876*
X00448Y01887*
X00456Y01899*
X00462Y01913*
X00464Y01927*
Y01942*
X00462Y01956*
X00456Y0197*
X00448Y01982*
X00437Y01993*
X00425Y02001*
X00411Y02007*
X00397Y02009*
G37*
G36*
X01377Y01909D02*
X01375D01*
Y0186*
X01424*
Y01862*
X0142Y01875*
X01413Y01888*
X01403Y01898*
X0139Y01905*
X01377Y01909*
G37*
G36*
X01365D02*
X01362D01*
X01349Y01905*
X01336Y01898*
X01326Y01888*
X01319Y01875*
X01315Y01862*
Y0186*
X01365*
Y01909*
G37*
G36*
X01495Y02178D02*
X01484D01*
X01473Y02175*
X01463Y02169*
X01455Y02161*
X01449Y02151*
X01447Y0214*
Y02129*
X01449Y02118*
X01455Y02108*
X01463Y021*
X01473Y02094*
X01484Y02092*
X01495*
X01506Y02094*
X01506Y02095*
X0155Y02051*
Y01906*
X01545Y01905*
X01533Y01898*
X01523Y01888*
X01516Y01875*
X01512Y01862*
Y01847*
X01516Y01834*
X01523Y01821*
X01533Y01811*
X01545Y01804*
X01559Y018*
X01573*
X01587Y01804*
X016Y01811*
X0161Y01821*
X01617Y01834*
X01621Y01847*
Y01862*
X01617Y01875*
X0161Y01888*
X016Y01898*
X01587Y01905*
X01583Y01906*
Y02058*
X01581Y02064*
X01578Y02069*
X01529Y02118*
X0153Y02118*
X01533Y02129*
Y0214*
X0153Y02151*
X01524Y02161*
X01516Y02169*
X01506Y02175*
X01495Y02178*
G37*
G36*
X01424Y0185D02*
X01375D01*
Y018*
X01377*
X0139Y01804*
X01403Y01811*
X01413Y01821*
X0142Y01834*
X01424Y01847*
Y0185*
G37*
G36*
X01365D02*
X01315D01*
Y01847*
X01319Y01834*
X01326Y01821*
X01336Y01811*
X01349Y01804*
X01362Y018*
X01365*
Y0185*
G37*
G36*
X01033Y02178D02*
X00947D01*
Y02092*
X00973*
Y01893*
X00974Y01887*
X00978Y01881*
X00995Y01865*
X00992Y0186*
X00989Y01847*
Y01832*
X00992Y01819*
X00999Y01806*
X0101Y01796*
X01022Y01789*
X01036Y01785*
X0105*
X01064Y01789*
X01076Y01796*
X01086Y01806*
X01094Y01819*
X01097Y01832*
Y01847*
X01094Y0186*
X01086Y01873*
X01076Y01883*
X01064Y0189*
X0105Y01894*
X01036*
X01022Y0189*
X01018Y01888*
X01006Y019*
Y02092*
X01033*
Y02178*
G37*
G36*
X01195D02*
X01184D01*
X01173Y02175*
X01163Y02169*
X01155Y02161*
X01149Y02151*
X01147Y0214*
Y02129*
X01149Y02118*
X01155Y02108*
X01163Y021*
X01173Y02094*
X01173Y02094*
Y01514*
X00736*
X00735Y01519*
X00728Y01531*
X00718Y01541*
X00705Y01549*
X00692Y01552*
X00677*
X00664Y01549*
X00651Y01541*
X00641Y01531*
X00634Y01519*
X0063Y01505*
Y01491*
X00634Y01477*
X00641Y01465*
X00651Y01454*
X00664Y01447*
X00677Y01444*
X00692*
X00705Y01447*
X00718Y01454*
X00728Y01465*
X00735Y01477*
X00736Y01482*
X01182*
X01189Y01483*
X01194Y01486*
X01201Y01493*
X01205Y01499*
X01206Y01505*
Y02094*
X01206Y02094*
X01216Y021*
X01224Y02108*
X0123Y02118*
X01233Y02129*
Y0214*
X0123Y02151*
X01224Y02161*
X01216Y02169*
X01206Y02175*
X01195Y02178*
G37*
G36*
X0201Y01355D02*
X01985D01*
Y0132*
X02049*
X02048Y01325*
X02044Y01335*
X02038Y01343*
X0203Y01349*
X0202Y01353*
X0201Y01355*
G37*
G36*
X01405D02*
X0138D01*
Y0132*
X01444*
X01443Y01325*
X01439Y01335*
X01433Y01343*
X01425Y01349*
X01415Y01353*
X01405Y01355*
G37*
G36*
X01975D02*
X0195D01*
X01939Y01353*
X01929Y01349*
X01921Y01343*
X01915Y01335*
X01911Y01325*
X0191Y0132*
X01975*
Y01355*
G37*
G36*
X0137D02*
X01345D01*
X01334Y01353*
X01324Y01349*
X01316Y01343*
X0131Y01335*
X01306Y01325*
X01305Y0132*
X0137*
Y01355*
G37*
G36*
X01705Y0135D02*
X0168D01*
Y01315*
X01744*
X01743Y0132*
X01739Y0133*
X01733Y01338*
X01725Y01344*
X01715Y01348*
X01705Y0135*
G37*
G36*
X0167D02*
X01645D01*
X01634Y01348*
X01624Y01344*
X01616Y01338*
X0161Y0133*
X01606Y0132*
X01605Y01315*
X0167*
Y0135*
G37*
G36*
X02049Y0131D02*
X01985D01*
Y01274*
X0201*
X0202Y01276*
X0203Y0128*
X02038Y01286*
X02044Y01294*
X02048Y01304*
X02049Y0131*
G37*
G36*
X01975D02*
X0191D01*
X01911Y01304*
X01915Y01294*
X01921Y01286*
X01929Y0128*
X01939Y01276*
X0195Y01274*
X01975*
Y0131*
G37*
G36*
X01444D02*
X0138D01*
Y01274*
X01405*
X01415Y01276*
X01425Y0128*
X01433Y01286*
X01439Y01294*
X01443Y01304*
X01444Y0131*
G37*
G36*
X0137D02*
X01305D01*
X01306Y01304*
X0131Y01294*
X01316Y01286*
X01324Y0128*
X01334Y01276*
X01345Y01274*
X0137*
Y0131*
G37*
G36*
X01744Y01305D02*
X0168D01*
Y01269*
X01705*
X01715Y01271*
X01725Y01275*
X01733Y01281*
X01739Y01289*
X01743Y01299*
X01744Y01305*
G37*
G36*
X0167D02*
X01605D01*
X01606Y01299*
X0161Y01289*
X01616Y01281*
X01624Y01275*
X01634Y01271*
X01645Y01269*
X0167*
Y01305*
G37*
G36*
X02412Y01374D02*
X02397D01*
X02384Y0137*
X02371Y01363*
X02361Y01353*
X02354Y0134*
X0235Y01327*
Y01312*
X02354Y01299*
X02356Y01294*
X02293Y01231*
X02046*
X02044Y01235*
X02038Y01243*
X0203Y01249*
X0202Y01253*
X0201Y01255*
X0195*
X01939Y01253*
X01929Y01249*
X01921Y01243*
X01915Y01235*
X01911Y01225*
X01909Y01215*
X01911Y01204*
X01915Y01194*
X01921Y01186*
X01929Y0118*
X01939Y01176*
X0195Y01174*
X0201*
X0202Y01176*
X0203Y0118*
X02038Y01186*
X02044Y01194*
X02046Y01198*
X023*
X02306Y01199*
X02311Y01203*
X02379Y01271*
X02384Y01269*
X02397Y01265*
X02412*
X02425Y01269*
X02438Y01276*
X02448Y01286*
X02455Y01299*
X02459Y01312*
Y01327*
X02455Y0134*
X02448Y01353*
X02438Y01363*
X02425Y0137*
X02412Y01374*
G37*
G36*
X00692Y01355D02*
X00677D01*
X00664Y01352*
X00651Y01345*
X00641Y01334*
X00634Y01322*
X0063Y01308*
Y01294*
X00634Y0128*
X00641Y01268*
X00651Y01258*
X00664Y0125*
X00677Y01247*
X00692*
X00705Y0125*
X00718Y01258*
X00728Y01268*
X00735Y0128*
X00736Y01285*
X01126*
X01208Y01203*
X01213Y01199*
X0122Y01198*
X01308*
X0131Y01194*
X01316Y01186*
X01324Y0118*
X01334Y01176*
X01345Y01174*
X01405*
X01415Y01176*
X01425Y0118*
X01433Y01186*
X01439Y01194*
X01443Y01204*
X01445Y01215*
X01443Y01225*
X01439Y01235*
X01433Y01243*
X01425Y01249*
X01415Y01253*
X01405Y01255*
X01345*
X01334Y01253*
X01324Y01249*
X01316Y01243*
X0131Y01235*
X01308Y01231*
X01226*
X01144Y01313*
X01139Y01316*
X01133Y01317*
X00736*
X00735Y01322*
X00728Y01334*
X00718Y01345*
X00705Y01352*
X00692Y01355*
G37*
G36*
X0254Y01621D02*
X01905D01*
X01898Y0162*
X01893Y01616*
X01798Y01521*
X01794Y01516*
X01793Y0151*
Y01226*
X01741*
X01739Y0123*
X01733Y01238*
X01725Y01244*
X01715Y01248*
X01705Y0125*
X01645*
X01634Y01248*
X01624Y01244*
X01616Y01238*
X0161Y0123*
X01606Y0122*
X01604Y0121*
X01606Y01199*
X0161Y01189*
X01616Y01181*
X01624Y01175*
X01634Y01171*
X01645Y01169*
X01705*
X01715Y01171*
X01725Y01175*
X01733Y01181*
X01739Y01189*
X01741Y01193*
X01804*
X0181Y01194*
X01815Y01198*
X01821Y01204*
X01825Y01209*
X01826Y01215*
Y01503*
X01911Y01588*
X02533*
X02618Y01503*
Y01139*
X02456*
X02455Y01144*
X02448Y01156*
X02438Y01166*
X02425Y01173*
X02412Y01177*
X02397*
X02384Y01173*
X02371Y01166*
X02361Y01156*
X02354Y01144*
X0235Y0113*
Y01116*
X02354Y01102*
X02361Y01089*
X02371Y01079*
X02384Y01072*
X02397Y01068*
X02412*
X02425Y01072*
X02438Y01079*
X02448Y01089*
X02455Y01102*
X02456Y01106*
X02629*
X02635Y01108*
X0264Y01111*
X02646Y01117*
X0265Y01122*
X02651Y01129*
Y0151*
X0265Y01516*
X02646Y01521*
X02551Y01616*
X02546Y0162*
X0254Y01621*
G37*
G36*
X0201Y01155D02*
X0195D01*
X01939Y01153*
X01929Y01149*
X01921Y01143*
X01915Y01135*
X01913Y01131*
X01815*
X01809Y0113*
X01804Y01126*
X01798Y0112*
X01794Y01115*
X01793Y01109*
Y00771*
X01538Y00516*
X01534Y00511*
X01533Y00505*
Y00275*
X01533Y00275*
X01523Y00269*
X01515Y00261*
X01509Y00251*
X01507Y0024*
Y00229*
X01509Y00218*
X01515Y00208*
X01523Y002*
X01533Y00194*
X01544Y00192*
X01555*
X01566Y00194*
X01576Y002*
X01584Y00208*
X0159Y00218*
X01593Y00229*
Y0024*
X0159Y00251*
X01584Y00261*
X01576Y00269*
X01566Y00275*
X01566Y00275*
Y00498*
X01821Y00753*
X01825Y00758*
X01826Y00765*
Y01098*
X01913*
X01915Y01094*
X01921Y01086*
X01929Y0108*
X01939Y01076*
X0195Y01074*
X0201*
X0202Y01076*
X0203Y0108*
X02038Y01086*
X02044Y01094*
X02048Y01104*
X0205Y01115*
X02048Y01125*
X02044Y01135*
X02038Y01143*
X0203Y01149*
X0202Y01153*
X0201Y01155*
G37*
G36*
X01405D02*
X01345D01*
X01334Y01153*
X01324Y01149*
X01316Y01143*
X0131Y01135*
X01308Y01131*
X0095*
X00944Y0113*
X00939Y01126*
X00933Y0112*
X00929Y01115*
X00928Y01109*
Y00871*
X00881Y00824*
X00736*
X00735Y00829*
X00728Y00841*
X00718Y00851*
X00705Y00858*
X00692Y00862*
X00677*
X00664Y00858*
X00651Y00851*
X00641Y00841*
X00634Y00829*
X0063Y00815*
Y00801*
X00634Y00787*
X00641Y00774*
X00651Y00764*
X00664Y00757*
X00677Y00753*
X00692*
X00705Y00757*
X0071Y00759*
X01076Y00393*
X01081Y00389*
X01088Y00388*
X01333*
Y00278*
X01307*
Y00192*
X01393*
Y00278*
X01366*
Y00397*
X01365Y00404*
X01361Y00409*
X01354Y00416*
X01349Y0042*
X01342Y00421*
X01094*
X00733Y00783*
X00735Y00787*
X00736Y00791*
X00888*
X00894Y00793*
X00899Y00796*
X00956Y00853*
X0096Y00858*
X00961Y00865*
Y01098*
X01308*
X0131Y01094*
X01316Y01086*
X01324Y0108*
X01334Y01076*
X01345Y01074*
X01405*
X01415Y01076*
X01425Y0108*
X01433Y01086*
X01439Y01094*
X01443Y01104*
X01445Y01115*
X01443Y01125*
X01439Y01135*
X01433Y01143*
X01425Y01149*
X01415Y01153*
X01405Y01155*
G37*
G36*
X00692Y01059D02*
X0069D01*
Y0101*
X00739*
Y01012*
X00735Y01025*
X00728Y01038*
X00718Y01048*
X00705Y01055*
X00692Y01059*
G37*
G36*
X0068D02*
X00677D01*
X00664Y01055*
X00651Y01048*
X00641Y01038*
X00634Y01025*
X0063Y01012*
Y0101*
X0068*
Y01059*
G37*
G36*
X00739Y01D02*
X0069D01*
Y0095*
X00692*
X00705Y00954*
X00718Y00961*
X00728Y00971*
X00735Y00984*
X00739Y00997*
Y01*
G37*
G36*
X0068D02*
X0063D01*
Y00997*
X00634Y00984*
X00641Y00971*
X00651Y00961*
X00664Y00954*
X00677Y0095*
X0068*
Y01*
G37*
G36*
X00397Y00909D02*
X00382D01*
X00368Y00907*
X00354Y00901*
X00342Y00893*
X00331Y00882*
X00323Y0087*
X00317Y00856*
X00315Y00842*
Y00827*
X00317Y00813*
X00323Y00799*
X00331Y00787*
X00342Y00776*
X00354Y00768*
X00368Y00762*
X00382Y0076*
X00397*
X00411Y00762*
X00425Y00768*
X00437Y00776*
X00448Y00787*
X00456Y00799*
X00462Y00813*
X00464Y00827*
Y00842*
X00462Y00856*
X00456Y0087*
X00448Y00882*
X00437Y00893*
X00425Y00901*
X00411Y00907*
X00397Y00909*
G37*
G36*
X01955Y00278D02*
X01955D01*
Y0024*
X01993*
Y0024*
X0199Y00251*
X01984Y00261*
X01976Y00269*
X01966Y00275*
X01955Y00278*
G37*
G36*
X01945D02*
X01944D01*
X01933Y00275*
X01923Y00269*
X01915Y00261*
X01909Y00251*
X01907Y0024*
Y0024*
X01945*
Y00278*
G37*
G36*
X02255D02*
X02244D01*
X02233Y00275*
X02223Y00269*
X02215Y00261*
X02209Y00251*
X02207Y0024*
Y00229*
X02209Y00218*
X02215Y00208*
X02223Y002*
X02233Y00194*
X02244Y00192*
X02255*
X02266Y00194*
X02276Y002*
X02284Y00208*
X0229Y00218*
X02293Y00229*
Y0024*
X0229Y00251*
X02284Y00261*
X02276Y00269*
X02266Y00275*
X02255Y00278*
G37*
G36*
X02155D02*
X02144D01*
X02133Y00275*
X02123Y00269*
X02115Y00261*
X02109Y00251*
X02107Y0024*
Y00229*
X02109Y00218*
X02115Y00208*
X02123Y002*
X02133Y00194*
X02144Y00192*
X02155*
X02166Y00194*
X02176Y002*
X02184Y00208*
X0219Y00218*
X02193Y00229*
Y0024*
X0219Y00251*
X02184Y00261*
X02176Y00269*
X02166Y00275*
X02155Y00278*
G37*
G36*
X02055D02*
X02044D01*
X02033Y00275*
X02023Y00269*
X02015Y00261*
X02009Y00251*
X02007Y0024*
Y00229*
X02009Y00218*
X02015Y00208*
X02023Y002*
X02033Y00194*
X02044Y00192*
X02055*
X02066Y00194*
X02076Y002*
X02084Y00208*
X0209Y00218*
X02093Y00229*
Y0024*
X0209Y00251*
X02084Y00261*
X02076Y00269*
X02066Y00275*
X02055Y00278*
G37*
G36*
X01993Y0023D02*
X01955D01*
Y00192*
X01955*
X01966Y00194*
X01976Y002*
X01984Y00208*
X0199Y00218*
X01993Y00229*
Y0023*
G37*
G36*
X01945D02*
X01907D01*
Y00229*
X01909Y00218*
X01915Y00208*
X01923Y002*
X01933Y00194*
X01944Y00192*
X01945*
Y0023*
G37*
G36*
X01855Y00278D02*
X01844D01*
X01833Y00275*
X01823Y00269*
X01815Y00261*
X01809Y00251*
X01807Y0024*
Y00229*
X01809Y00218*
X01815Y00208*
X01823Y002*
X01833Y00194*
X01844Y00192*
X01855*
X01866Y00194*
X01876Y002*
X01884Y00208*
X0189Y00218*
X01893Y00229*
Y0024*
X0189Y00251*
X01884Y00261*
X01876Y00269*
X01866Y00275*
X01855Y00278*
G37*
G36*
X01755D02*
X01744D01*
X01733Y00275*
X01723Y00269*
X01715Y00261*
X01709Y00251*
X01707Y0024*
Y00229*
X01709Y00218*
X01715Y00208*
X01723Y002*
X01733Y00194*
X01744Y00192*
X01755*
X01766Y00194*
X01776Y002*
X01784Y00208*
X0179Y00218*
X01793Y00229*
Y0024*
X0179Y00251*
X01784Y00261*
X01776Y00269*
X01766Y00275*
X01755Y00278*
G37*
G36*
X01655D02*
X01644D01*
X01633Y00275*
X01623Y00269*
X01615Y00261*
X01609Y00251*
X01607Y0024*
Y00229*
X01609Y00218*
X01615Y00208*
X01623Y002*
X01633Y00194*
X01644Y00192*
X01655*
X01666Y00194*
X01676Y002*
X01684Y00208*
X0169Y00218*
X01693Y00229*
Y0024*
X0169Y00251*
X01684Y00261*
X01676Y00269*
X01666Y00275*
X01655Y00278*
G37*
G36*
X01705Y0115D02*
X01645D01*
X01634Y01148*
X01624Y01144*
X01616Y01138*
X0161Y0113*
X01606Y0112*
X01604Y0111*
X01606Y01099*
X0161Y01089*
X01616Y01081*
X01624Y01075*
X01633Y01071*
Y00686*
X01438Y00491*
X01434Y00486*
X01433Y0048*
Y00275*
X01433Y00275*
X01423Y00269*
X01415Y00261*
X01409Y00251*
X01407Y0024*
Y00229*
X01409Y00218*
X01415Y00208*
X01423Y002*
X01433Y00194*
X01444Y00192*
X01455*
X01466Y00194*
X01476Y002*
X01484Y00208*
X0149Y00218*
X01493Y00229*
Y0024*
X0149Y00251*
X01484Y00261*
X01476Y00269*
X01466Y00275*
X01466Y00275*
Y00473*
X01661Y00668*
X01665Y00673*
X01666Y0068*
Y01069*
X01705*
X01715Y01071*
X01725Y01075*
X01733Y01081*
X01739Y01089*
X01743Y01099*
X01745Y0111*
X01743Y0112*
X01739Y0113*
X01733Y01138*
X01725Y01144*
X01715Y01148*
X01705Y0115*
G37*
G36*
X01195Y00278D02*
X01184D01*
X01173Y00275*
X01163Y00269*
X01155Y00261*
X01149Y00251*
X01147Y0024*
Y00229*
X01149Y00218*
X01155Y00208*
X01163Y002*
X01173Y00194*
X01184Y00192*
X01195*
X01206Y00194*
X01216Y002*
X01224Y00208*
X0123Y00218*
X01233Y00229*
Y0024*
X0123Y00251*
X01224Y00261*
X01216Y00269*
X01206Y00275*
X01195Y00278*
G37*
G36*
X01095D02*
X01084D01*
X01073Y00275*
X01063Y00269*
X01055Y00261*
X01049Y00251*
X01047Y0024*
Y00229*
X01049Y00218*
X01055Y00208*
X01063Y002*
X01073Y00194*
X01084Y00192*
X01095*
X01106Y00194*
X01116Y002*
X01124Y00208*
X0113Y00218*
X01133Y00229*
Y0024*
X0113Y00251*
X01124Y00261*
X01116Y00269*
X01106Y00275*
X01095Y00278*
G37*
G36*
X00995D02*
X00984D01*
X00973Y00275*
X00963Y00269*
X00955Y00261*
X00949Y00251*
X00947Y0024*
Y00229*
X00949Y00218*
X00955Y00208*
X00963Y002*
X00973Y00194*
X00984Y00192*
X00995*
X01006Y00194*
X01016Y002*
X01024Y00208*
X0103Y00218*
X01033Y00229*
Y0024*
X0103Y00251*
X01024Y00261*
X01016Y00269*
X01006Y00275*
X00995Y00278*
G37*
G36*
X00895D02*
X00884D01*
X00873Y00275*
X00863Y00269*
X00855Y00261*
X00849Y00251*
X00847Y0024*
Y00229*
X00849Y00218*
X00855Y00208*
X00863Y002*
X00873Y00194*
X00884Y00192*
X00895*
X00906Y00194*
X00916Y002*
X00924Y00208*
X0093Y00218*
X00933Y00229*
Y0024*
X0093Y00251*
X00924Y00261*
X00916Y00269*
X00906Y00275*
X00895Y00278*
G37*
G36*
X00795D02*
X00784D01*
X00773Y00275*
X00763Y00269*
X00755Y00261*
X00749Y00251*
X00747Y0024*
Y00229*
X00749Y00218*
X00755Y00208*
X00763Y002*
X00773Y00194*
X00784Y00192*
X00795*
X00806Y00194*
X00816Y002*
X00824Y00208*
X0083Y00218*
X00833Y00229*
Y0024*
X0083Y00251*
X00824Y00261*
X00816Y00269*
X00806Y00275*
X00795Y00278*
G37*
G36*
X00695D02*
X00684D01*
X00673Y00275*
X00663Y00269*
X00655Y00261*
X00649Y00251*
X00647Y0024*
Y00229*
X00649Y00218*
X00655Y00208*
X00663Y002*
X00673Y00194*
X00684Y00192*
X00695*
X00706Y00194*
X00716Y002*
X00724Y00208*
X0073Y00218*
X00733Y00229*
Y0024*
X0073Y00251*
X00724Y00261*
X00716Y00269*
X00706Y00275*
X00695Y00278*
G37*
G36*
X00292Y00672D02*
X00277D01*
X00264Y00669*
X00251Y00661*
X00241Y00651*
X00234Y00639*
X0023Y00625*
Y00611*
X00234Y00597*
X00241Y00585*
X00251Y00574*
X00264Y00567*
X00277Y00564*
X00292*
X00305Y00567*
X00318Y00574*
X00328Y00585*
X00335Y00597*
X00336Y00602*
X00544*
X00573Y00573*
Y00275*
X00573Y00275*
X00563Y00269*
X00555Y00261*
X00549Y00251*
X00547Y0024*
Y00229*
X00549Y00218*
X00555Y00208*
X00563Y002*
X00573Y00194*
X00584Y00192*
X00595*
X00606Y00194*
X00616Y002*
X00624Y00208*
X0063Y00218*
X00633Y00229*
Y0024*
X0063Y00251*
X00624Y00261*
X00616Y00269*
X00606Y00275*
X00606Y00275*
Y0058*
X00605Y00586*
X00601Y00591*
X00563Y00629*
X00557Y00633*
X00551Y00634*
X00336*
X00335Y00639*
X00328Y00651*
X00318Y00661*
X00305Y00669*
X00292Y00672*
G37*
G36*
Y00475D02*
X00277D01*
X00264Y00472*
X00251Y00465*
X00241Y00454*
X00234Y00442*
X0023Y00428*
Y00414*
X00234Y004*
X00241Y00388*
X00251Y00378*
X00264Y0037*
X00277Y00367*
X00292*
X00305Y0037*
X00318Y00378*
X00328Y00388*
X00335Y004*
X00336Y00405*
X00471*
X00473Y00403*
Y00278*
X00447*
Y00192*
X00533*
Y00278*
X00506*
Y0041*
X00505Y00416*
X00501Y00421*
X00489Y00433*
X00484Y00436*
X00478Y00437*
X00336*
X00335Y00442*
X00328Y00454*
X00318Y00465*
X00305Y00472*
X00292Y00475*
G37*
G36*
X02397Y00309D02*
X02382D01*
X02368Y00307*
X02354Y00301*
X02342Y00293*
X02331Y00282*
X02323Y0027*
X02317Y00256*
X02315Y00242*
Y00227*
X02317Y00213*
X02323Y00199*
X02331Y00187*
X02342Y00176*
X02354Y00168*
X02368Y00162*
X02382Y0016*
X02397*
X02411Y00162*
X02425Y00168*
X02437Y00176*
X02448Y00187*
X02456Y00199*
X02462Y00213*
X02464Y00227*
Y00242*
X02462Y00256*
X02456Y0027*
X02448Y00282*
X02437Y00293*
X02425Y00301*
X02411Y00307*
X02397Y00309*
G37*
%LNpcb_t3-3*%
%LPD*%
G54D19*
X00285Y00421D03*
Y00618D03*
X00685Y01005D03*
Y00808D03*
X01043Y0184D03*
X00846D03*
X01566Y01855D03*
X0137D03*
X02405Y0132D03*
Y01123D03*
X00685Y01301D03*
Y01498D03*
G54D20*
X0198Y01115D03*
Y01215D03*
Y01315D03*
X01675Y0111D03*
Y0121D03*
Y0131D03*
X01375Y01115D03*
Y01215D03*
Y01315D03*
G54D21*
X0159Y02135D03*
X0149D03*
X0089D03*
X0079D03*
X0069D03*
X0059D03*
X0049D03*
X0205Y00235D03*
X0059D03*
X0069D03*
X0079D03*
X0089D03*
X0099D03*
X0109D03*
X0119D03*
X0145D03*
X0155D03*
X0165D03*
X0175D03*
X0185D03*
X0139Y02135D03*
X0129D03*
X0195Y00235D03*
X0169Y02135D03*
X0119D03*
X0215Y00235D03*
X0225D03*
X0179Y02135D03*
G54D22*
X0099Y02135D03*
X0049Y00235D03*
X0135D03*
X0189Y02135D03*
G54D23*
X0039Y00835D03*
Y01935D03*
X0239Y00235D03*
X0244Y02135D03*
G54D24*
X01815Y01115D02*
X0198D01*
X0155Y00505D02*
X0181Y00765D01*
Y01109D02*
X01815Y01115D01*
X0181Y00765D02*
Y01109D01*
X0155Y00235D02*
Y00505D01*
X0119Y01505D02*
Y02135D01*
X00685Y01498D02*
X01182D01*
X0119Y01505*
X01088Y00405D02*
X01342D01*
X0135Y00235D02*
Y00397D01*
X01342Y00405D02*
X0135Y00397D01*
X00685Y00808D02*
X01088Y00405D01*
X00685Y00808D02*
X00888D01*
X00945Y00865*
Y01109*
X0095Y01115*
X01375*
X00685Y01301D02*
X01133D01*
X0122Y01215*
X0059Y00235D02*
Y0058D01*
X00285Y00618D02*
X00551D01*
X0059Y0058*
X0049Y00235D02*
Y0041D01*
X00285Y00421D02*
X00478D01*
X0049Y0041*
X0145Y0048D02*
X0165Y0068D01*
Y01086*
X0145Y00235D02*
Y0048D01*
X02635Y01129D02*
Y0151D01*
X02629Y01123D02*
X02635Y01129D01*
X02405Y01123D02*
X02629D01*
X0254Y01605D02*
X02635Y0151D01*
X01905Y01605D02*
X0254D01*
X0181Y0151D02*
X01905Y01605D01*
X01675Y0121D02*
X01804D01*
X0181Y01215*
Y0151*
X0198Y01215D02*
X023D01*
X02405Y0132*
X01673Y0111D02*
X01675D01*
X0165Y01086D02*
X01673Y0111D01*
X0122Y01215D02*
X01375D01*
X00846Y0184D02*
Y01851D01*
X0089Y01895*
Y02135*
X0099Y01893D02*
Y02135D01*
Y01893D02*
X01043Y0184D01*
X01566Y01855D02*
Y02058D01*
X0149Y02135D02*
X01566Y02058D01*
M02*