%FSTAX23Y23*%
%MOIN*%
%SFA1B1*%

%IPPOS*%
%ADD13C,0.010000*%
%ADD19C,0.088582*%
%ADD20O,0.120000X0.060000*%
%ADD21C,0.066000*%
%ADD22R,0.066000X0.066000*%
%ADD23C,0.129921*%
%LNpcb_t3-1*%
%LPD*%
G54D13*
X0Y0D02*
X03149D01*
X0Y02362D02*
X03149D01*
Y0D02*
Y02362D01*
X0Y0D02*
Y02362D01*
G54D19*
X00285Y00421D03*
Y00618D03*
X00685Y01005D03*
Y00808D03*
X01043Y0184D03*
X00846D03*
X01566Y01855D03*
X0137D03*
X02405Y0132D03*
Y01123D03*
X00685Y01301D03*
Y01498D03*
G54D20*
X0198Y01115D03*
Y01215D03*
Y01315D03*
X01675Y0111D03*
Y0121D03*
Y0131D03*
X01375Y01115D03*
Y01215D03*
Y01315D03*
G54D21*
X0159Y02135D03*
X0149D03*
X0089D03*
X0079D03*
X0069D03*
X0059D03*
X0049D03*
X0205Y00235D03*
X0059D03*
X0069D03*
X0079D03*
X0089D03*
X0099D03*
X0109D03*
X0119D03*
X0145D03*
X0155D03*
X0165D03*
X0175D03*
X0185D03*
X0139Y02135D03*
X0129D03*
X0195Y00235D03*
X0169Y02135D03*
X0119D03*
X0215Y00235D03*
X0225D03*
X0179Y02135D03*
G54D22*
X0099Y02135D03*
X0049Y00235D03*
X0135D03*
X0189Y02135D03*
G54D23*
X0039Y00835D03*
Y01935D03*
X0239Y00235D03*
X0244Y02135D03*
M02*