M48
;Layer_Color=9474304
;FILE_FORMAT=4:4
METRIC,LZ
;TYPE=PLATED
T1F00S00C1.0160
T2F00S00C1.5000
;TYPE=NON_PLATED
T3F00S00C3.3000
%
T01
X0012446Y0005969
X0014986
X0017526
X0020066
X0022606
X0025146
X0027686
X0030226
X003429
X003683
X003937
X0034925Y0028321
Y0030861
Y0033401
X0042545Y0033274
Y0030734
Y0028194
X0050292Y0028321
Y0030861
Y0033401
X004953Y0005969
X005207
X005461
X005715
X004699
X004445
X004191
X0042926Y0054229
X0040386
X0045466
X0048006
X0037846
X0035306
X0032766
X0030226
X0025146
X0022606
X0020066
X0017526
X0014986
X0012446
T02
X0007239Y0010708
Y0015708
X0017399Y0020527
Y0025527
Y003306
Y003806
X0061087Y0033528
Y0028528
X0039798Y0047117
X0034798
X0026503Y0046736
X0021503
T03
X0009906Y0021209
X0060706Y0005969
X0061976Y0054229
X0009906Y0049149
M30
