G04*
G04 #@! TF.GenerationSoftware,Altium Limited,Altium Designer,23.5.1 (21)*
G04*
G04 Layer_Color=65535*
%FSLAX44Y44*%
%MOMM*%
G71*
G04*
G04 #@! TF.SameCoordinates,D93342A0-999F-4D70-BDBB-96AC1F057240*
G04*
G04*
G04 #@! TF.FilePolarity,Positive*
G04*
G01*
G75*
%ADD10C,0.3000*%
%ADD11C,0.1270*%
%ADD12C,0.2000*%
%ADD13C,0.2540*%
G36*
X490230Y342926D02*
X485149D01*
Y325120D01*
X490230D01*
Y317507D01*
X485149D01*
Y299720D01*
X490240D01*
Y292075D01*
X485149D01*
Y274320D01*
X490227D01*
Y255243D01*
X485149D01*
Y255206D01*
X477520D01*
Y361950D01*
X490230D01*
Y342926D01*
D02*
G37*
G36*
X336560D02*
X331479D01*
Y325120D01*
X336560D01*
Y317507D01*
X331479D01*
Y299720D01*
X336570D01*
Y292075D01*
X331479D01*
Y274320D01*
X336557D01*
Y255243D01*
X331479D01*
Y255206D01*
X323850D01*
Y361950D01*
X336560D01*
Y342926D01*
D02*
G37*
G36*
X412760Y341656D02*
X407679D01*
Y323850D01*
X412760D01*
Y316237D01*
X407679D01*
Y298450D01*
X412770D01*
Y290805D01*
X407679D01*
Y273050D01*
X412757D01*
Y253973D01*
X407679D01*
Y253936D01*
X400050D01*
Y360680D01*
X412760D01*
Y341656D01*
D02*
G37*
D10*
X89390Y168080D02*
G03*
X89390Y168080I-1000J0D01*
G01*
X190990Y266270D02*
G03*
X190990Y266270I-1000J0D01*
G01*
X205030Y483360D02*
G03*
X205030Y483360I-1000J0D01*
G01*
X337980Y487170D02*
G03*
X337980Y487170I-1000J0D01*
G01*
X595870Y274280D02*
G03*
X595870Y274280I-1000J0D01*
G01*
X190990Y391600D02*
G03*
X190990Y391600I-1000J0D01*
G01*
D11*
X517144Y263652D02*
G03*
X517144Y263652I-2540J0D01*
G01*
X439674Y262382D02*
G03*
X439674Y262382I-2540J0D01*
G01*
X363474Y263652D02*
G03*
X363474Y263652I-2540J0D01*
G01*
X488950Y359410D02*
X518160Y358140D01*
X520700Y355600D01*
Y261620D02*
Y355600D01*
X518160Y259080D02*
X520700Y261620D01*
X488950Y257810D02*
X518160Y259080D01*
X411480Y358140D02*
X440690Y356870D01*
X443230Y354330D01*
Y260350D02*
Y354330D01*
X440690Y257810D02*
X443230Y260350D01*
X411480Y256540D02*
X440690Y257810D01*
X335280Y359410D02*
X364490Y358140D01*
X367030Y355600D01*
Y261620D02*
Y355600D01*
X364490Y259080D02*
X367030Y261620D01*
X335280Y257810D02*
X364490Y259080D01*
X114740Y34704D02*
X749515D01*
X752054Y35127D01*
X754382Y36185D01*
X756498Y37666D01*
X758190Y39782D01*
X759037Y42110D01*
X759460Y44860D01*
Y557759D01*
X759037Y560298D02*
X759460Y557759D01*
X758190Y562626D02*
X759037Y560298D01*
X756498Y564742D02*
X758190Y562626D01*
X754382Y566434D02*
X756498Y564742D01*
X752054Y567281D02*
X754382Y566434D01*
X749515Y567704D02*
X752054Y567281D01*
X109450Y567704D02*
X749515D01*
X106911Y567281D02*
X109450Y567704D01*
X104583Y566434D02*
X106911Y567281D01*
X102467Y564742D02*
X104583Y566434D01*
X100774Y562626D02*
X102467Y564742D01*
X99928Y560298D02*
X100774Y562626D01*
X99505Y557759D02*
X99928Y560298D01*
X99505Y542313D02*
Y557759D01*
X74114Y516922D02*
X99505Y542313D01*
X74114Y189589D02*
Y516922D01*
Y189589D02*
X99505Y164198D01*
Y49939D02*
Y164198D01*
Y49939D02*
X114740Y34704D01*
D12*
X110390Y183080D02*
X113390D01*
Y81080D02*
Y183080D01*
X55390Y81080D02*
X113390D01*
X55390D02*
X57390Y75080D01*
X44390D02*
X57390D01*
X44390D02*
X46390Y81080D01*
X31390D02*
X46390D01*
X31390D02*
Y183080D01*
X101390D01*
X99390Y189080D02*
X101390Y183080D01*
X99390Y189080D02*
X112390D01*
X110390Y183080D02*
X112390Y189080D01*
X211990Y281270D02*
X213990Y287270D01*
X200990D02*
X213990D01*
X200990D02*
X202990Y281270D01*
X132990D02*
X202990D01*
X132990Y179270D02*
Y281270D01*
Y179270D02*
X147990D01*
X145990Y173270D02*
X147990Y179270D01*
X145990Y173270D02*
X158990D01*
X156990Y179270D02*
X158990Y173270D01*
X156990Y179270D02*
X214990D01*
Y281270D01*
X211990D02*
X214990D01*
X189030Y505360D02*
Y508360D01*
X291030D01*
Y450360D02*
Y508360D01*
Y450360D02*
X297030Y452360D01*
Y439360D02*
Y452360D01*
X291030Y441360D02*
X297030Y439360D01*
X291030Y426360D02*
Y441360D01*
X189030Y426360D02*
X291030D01*
X189030D02*
Y496360D01*
X183030Y494360D02*
X189030Y496360D01*
X183030Y494360D02*
Y507360D01*
X189030Y505360D01*
X321980Y509170D02*
Y512170D01*
X423980D01*
Y454170D02*
Y512170D01*
Y454170D02*
X429980Y456170D01*
Y443170D02*
Y456170D01*
X423980Y445170D02*
X429980Y443170D01*
X423980Y430170D02*
Y445170D01*
X321980Y430170D02*
X423980D01*
X321980D02*
Y500170D01*
X315980Y498170D02*
X321980Y500170D01*
X315980Y498170D02*
Y511170D01*
X321980Y509170D01*
X569870Y259280D02*
X572870D01*
X569870D02*
Y361280D01*
X627870D01*
X625870Y367280D02*
X627870Y361280D01*
X625870Y367280D02*
X638870D01*
X636870Y361280D02*
X638870Y367280D01*
X636870Y361280D02*
X651870D01*
Y259280D02*
Y361280D01*
X581870Y259280D02*
X651870D01*
X581870D02*
X583870Y253280D01*
X570870D02*
X583870D01*
X570870D02*
X572870Y259280D01*
X211990Y406600D02*
X214990D01*
Y304600D02*
Y406600D01*
X156990Y304600D02*
X214990D01*
X156990D02*
X158990Y298600D01*
X145990D02*
X158990D01*
X145990D02*
X147990Y304600D01*
X132990D02*
X147990D01*
X132990D02*
Y406600D01*
X202990D01*
X200990Y412600D02*
X202990Y406600D01*
X200990Y412600D02*
X213990D01*
X211990Y406600D02*
X213990Y412600D01*
D13*
X42161Y213863D02*
X37082D01*
X39622D01*
Y201167D01*
X37082Y198628D01*
X34543D01*
X32004Y201167D01*
X54857Y198628D02*
Y213863D01*
X47239Y206245D01*
X57396D01*
X143761Y312161D02*
X138682D01*
X141222D01*
Y299465D01*
X138682Y296926D01*
X136143D01*
X133604Y299465D01*
X158996Y312161D02*
X148839D01*
Y304543D01*
X153917Y307083D01*
X156457D01*
X158996Y304543D01*
Y299465D01*
X156457Y296926D01*
X151378D01*
X148839Y299465D01*
X490217Y372109D02*
Y382266D01*
X487677Y384805D01*
X482599D01*
X480060Y382266D01*
Y372109D01*
X482599Y369570D01*
X487677D01*
X485138Y374648D02*
X490217Y369570D01*
X487677D02*
X490217Y372109D01*
X495295Y382266D02*
X497834Y384805D01*
X502913D01*
X505452Y382266D01*
Y379727D01*
X502913Y377188D01*
X500373D01*
X502913D01*
X505452Y374648D01*
Y372109D01*
X502913Y369570D01*
X497834D01*
X495295Y372109D01*
X412747Y370839D02*
Y380996D01*
X410207Y383535D01*
X405129D01*
X402590Y380996D01*
Y370839D01*
X405129Y368300D01*
X410207D01*
X407668Y373378D02*
X412747Y368300D01*
X410207D02*
X412747Y370839D01*
X427982Y368300D02*
X417825D01*
X427982Y378457D01*
Y380996D01*
X425443Y383535D01*
X420364D01*
X417825Y380996D01*
X336547Y372109D02*
Y382266D01*
X334007Y384805D01*
X328929D01*
X326390Y382266D01*
Y372109D01*
X328929Y369570D01*
X334007D01*
X331468Y374648D02*
X336547Y369570D01*
X334007D02*
X336547Y372109D01*
X341625Y369570D02*
X346703D01*
X344164D01*
Y384805D01*
X341625Y382266D01*
X193799Y533141D02*
X188720D01*
X191259D01*
Y520445D01*
X188720Y517906D01*
X186181D01*
X183642Y520445D01*
X198877D02*
X201416Y517906D01*
X206495D01*
X209034Y520445D01*
Y530602D01*
X206495Y533141D01*
X201416D01*
X198877Y530602D01*
Y528063D01*
X201416Y525523D01*
X209034D01*
X326641Y536951D02*
X321562D01*
X324101D01*
Y524255D01*
X321562Y521716D01*
X319023D01*
X316484Y524255D01*
X331719Y534412D02*
X334258Y536951D01*
X339337D01*
X341876Y534412D01*
Y531873D01*
X339337Y529333D01*
X341876Y526794D01*
Y524255D01*
X339337Y521716D01*
X334258D01*
X331719Y524255D01*
Y526794D01*
X334258Y529333D01*
X331719Y531873D01*
Y534412D01*
X334258Y529333D02*
X339337D01*
X580641Y392171D02*
X575562D01*
X578102D01*
Y379475D01*
X575562Y376936D01*
X573023D01*
X570484Y379475D01*
X595876Y376936D02*
X585719D01*
X595876Y387093D01*
Y389632D01*
X593337Y392171D01*
X588258D01*
X585719Y389632D01*
X143761Y437383D02*
X138682D01*
X141222D01*
Y424687D01*
X138682Y422148D01*
X136143D01*
X133604Y424687D01*
X148839Y422148D02*
X153917D01*
X151378D01*
Y437383D01*
X148839Y434844D01*
X73914Y842010D02*
Y852167D01*
X78992Y857245D01*
X84071Y852167D01*
Y842010D01*
Y849628D01*
X73914D01*
X89149Y842010D02*
X94227D01*
X91688D01*
Y857245D01*
X89149Y854706D01*
M02*
