G04*
G04 #@! TF.GenerationSoftware,Altium Limited,Altium Designer,23.5.1 (21)*
G04*
G04 Layer_Color=16711935*
%FSLAX44Y44*%
%MOMM*%
G71*
G04*
G04 #@! TF.SameCoordinates,ED782997-6606-4CDB-8382-DB1614AECA6D*
G04*
G04*
G04 #@! TF.FilePolarity,Positive*
G04*
G01*
G75*
%ADD11C,0.1270*%
%ADD13C,0.2540*%
%ADD25C,0.1000*%
G36*
X490220Y325121D02*
X485140D01*
Y342900D01*
X490220D01*
Y325121D01*
D02*
G37*
G36*
X336550D02*
X331470D01*
Y342900D01*
X336550D01*
Y325121D01*
D02*
G37*
G36*
X412751Y323851D02*
X407670D01*
Y341630D01*
X412751D01*
Y323851D01*
D02*
G37*
G36*
X490226Y299716D02*
X485140D01*
Y317500D01*
X490226D01*
Y299716D01*
D02*
G37*
G36*
X336556D02*
X331470D01*
Y317500D01*
X336556D01*
Y299716D01*
D02*
G37*
G36*
X412756Y298446D02*
X407670D01*
Y316230D01*
X412756D01*
Y298446D01*
D02*
G37*
G36*
X490222Y274315D02*
X485140D01*
Y292100D01*
X490222D01*
Y274315D01*
D02*
G37*
G36*
X336552D02*
X331470D01*
Y292100D01*
X336552D01*
Y274315D01*
D02*
G37*
G36*
X412752Y273046D02*
X407670D01*
Y290830D01*
X412752D01*
Y273046D01*
D02*
G37*
D11*
X114740Y34704D02*
X749515D01*
X752054Y35127D01*
X754382Y36185D01*
X756498Y37666D01*
X758190Y39782D01*
X759037Y42110D01*
X759460Y44860D01*
Y557759D01*
X759037Y560298D02*
X759460Y557759D01*
X758190Y562626D02*
X759037Y560298D01*
X756498Y564742D02*
X758190Y562626D01*
X754382Y566434D02*
X756498Y564742D01*
X752054Y567281D02*
X754382Y566434D01*
X749515Y567704D02*
X752054Y567281D01*
X109450Y567704D02*
X749515D01*
X106911Y567281D02*
X109450Y567704D01*
X104583Y566434D02*
X106911Y567281D01*
X102467Y564742D02*
X104583Y566434D01*
X100774Y562626D02*
X102467Y564742D01*
X99928Y560298D02*
X100774Y562626D01*
X99505Y557759D02*
X99928Y560298D01*
X99505Y542313D02*
Y557759D01*
X74114Y516922D02*
X99505Y542313D01*
X74114Y189589D02*
Y516922D01*
Y189589D02*
X99505Y164198D01*
Y49939D02*
Y164198D01*
Y49939D02*
X114740Y34704D01*
D13*
X509333Y276797D02*
Y281037D01*
Y278917D01*
X496612D01*
X498732Y276797D01*
X509312Y310727D02*
Y302252D01*
X500837Y310727D01*
X498718D01*
X496599Y308608D01*
Y304370D01*
X498718Y302252D01*
X498708Y327676D02*
X496590Y329794D01*
Y334029D01*
X498708Y336147D01*
X500826D01*
X502943Y334029D01*
Y331912D01*
Y334029D01*
X505061Y336147D01*
X507179D01*
X509297Y334029D01*
Y329794D01*
X507179Y327676D01*
X431863Y275527D02*
Y279767D01*
Y277647D01*
X419142D01*
X421262Y275527D01*
X431842Y309457D02*
Y300982D01*
X423367Y309457D01*
X421248D01*
X419129Y307338D01*
Y303100D01*
X421248Y300982D01*
X421238Y326406D02*
X419120Y328524D01*
Y332759D01*
X421238Y334877D01*
X423356D01*
X425473Y332759D01*
Y330642D01*
Y332759D01*
X427591Y334877D01*
X429709D01*
X431827Y332759D01*
Y328524D01*
X429709Y326406D01*
X355663Y276797D02*
Y281037D01*
Y278917D01*
X342942D01*
X345062Y276797D01*
X355642Y310727D02*
Y302252D01*
X347167Y310727D01*
X345048D01*
X342929Y308608D01*
Y304370D01*
X345048Y302252D01*
X345038Y327676D02*
X342920Y329794D01*
Y334029D01*
X345038Y336147D01*
X347156D01*
X349273Y334029D01*
Y331912D01*
Y334029D01*
X351391Y336147D01*
X353509D01*
X355627Y334029D01*
Y329794D01*
X353509Y327676D01*
D25*
X112390Y82080D02*
Y182080D01*
X46140Y76080D02*
X56140D01*
X32390Y82080D02*
Y182080D01*
X101040Y188080D02*
X111040D01*
X108790Y182080D02*
X112390D01*
X32390D02*
X103290D01*
X53890Y82080D02*
X112390D01*
X32390D02*
X48390D01*
X108790Y182080D02*
X111040Y188080D01*
X101040D02*
X103290Y182080D01*
X53890Y82080D02*
X56140Y76080D01*
X46140D02*
X48390Y82080D01*
X147740Y174270D02*
X149990Y180270D01*
X155490D02*
X157740Y174270D01*
X202640Y286270D02*
X204890Y280270D01*
X210390D02*
X212640Y286270D01*
X133990Y180270D02*
X149990D01*
X155490D02*
X213990D01*
X133990Y280270D02*
X204890D01*
X210390D02*
X213990D01*
X202640Y286270D02*
X212640D01*
X133990Y180270D02*
Y280270D01*
X147740Y174270D02*
X157740D01*
X213990Y180270D02*
Y280270D01*
X190030Y507360D02*
X290030D01*
X296030Y441110D02*
Y451110D01*
X190030Y427360D02*
X290030D01*
X184030Y496010D02*
Y506010D01*
X190030Y503760D02*
Y507360D01*
Y427360D02*
Y498260D01*
X290030Y448860D02*
Y507360D01*
Y427360D02*
Y443360D01*
X184030Y506010D02*
X190030Y503760D01*
X184030Y496010D02*
X190030Y498260D01*
X290030Y448860D02*
X296030Y451110D01*
X290030Y443360D02*
X296030Y441110D01*
X322980Y511170D02*
X422980D01*
X428980Y444920D02*
Y454920D01*
X322980Y431170D02*
X422980D01*
X316980Y499820D02*
Y509820D01*
X322980Y507570D02*
Y511170D01*
Y431170D02*
Y502070D01*
X422980Y452670D02*
Y511170D01*
Y431170D02*
Y447170D01*
X316980Y509820D02*
X322980Y507570D01*
X316980Y499820D02*
X322980Y502070D01*
X422980Y452670D02*
X428980Y454920D01*
X422980Y447170D02*
X428980Y444920D01*
X570870Y260280D02*
Y360280D01*
X627120Y366280D02*
X637120D01*
X650870Y260280D02*
Y360280D01*
X572220Y254280D02*
X582220D01*
X570870Y260280D02*
X574470D01*
X579970D02*
X650870D01*
X570870Y360280D02*
X629370D01*
X634870D02*
X650870D01*
X572220Y254280D02*
X574470Y260280D01*
X579970D02*
X582220Y254280D01*
X627120Y366280D02*
X629370Y360280D01*
X634870D02*
X637120Y366280D01*
X213990Y305600D02*
Y405600D01*
X147740Y299600D02*
X157740D01*
X133990Y305600D02*
Y405600D01*
X202640Y411600D02*
X212640D01*
X210390Y405600D02*
X213990D01*
X133990D02*
X204890D01*
X155490Y305600D02*
X213990D01*
X133990D02*
X149990D01*
X210390Y405600D02*
X212640Y411600D01*
X202640D02*
X204890Y405600D01*
X155490Y305600D02*
X157740Y299600D01*
X147740D02*
X149990Y305600D01*
M02*
