G04*
G04 #@! TF.GenerationSoftware,Altium Limited,Altium Designer,23.5.1 (21)*
G04*
G04 Layer_Physical_Order=2*
G04 Layer_Color=16711680*
%FSLAX44Y44*%
%MOMM*%
G71*
G04*
G04 #@! TF.SameCoordinates,ED782997-6606-4CDB-8382-DB1614AECA6D*
G04*
G04*
G04 #@! TF.FilePolarity,Positive*
G04*
G01*
G75*
%ADD19C,2.2500*%
%ADD20O,3.0480X1.5240*%
%ADD21C,1.6764*%
%ADD22R,1.6764X1.6764*%
%ADD23C,3.3000*%
%ADD24C,0.3048*%
G36*
X791210Y15240D02*
X784860Y8890D01*
X7620D01*
X5080Y585470D01*
X8890Y589280D01*
X791210D01*
Y15240D01*
D02*
G37*
%LPC*%
G36*
X354498Y553212D02*
X354330D01*
Y543560D01*
X363982D01*
Y543728D01*
X363238Y546506D01*
X361800Y548996D01*
X359766Y551030D01*
X357276Y552468D01*
X354498Y553212D01*
D02*
G37*
G36*
X329098D02*
X328930D01*
Y543560D01*
X338582D01*
Y543728D01*
X337838Y546506D01*
X336400Y548996D01*
X334366Y551030D01*
X331876Y552468D01*
X329098Y553212D01*
D02*
G37*
G36*
X351790D02*
X351622D01*
X348844Y552468D01*
X346354Y551030D01*
X344320Y548996D01*
X342882Y546506D01*
X342138Y543728D01*
Y543560D01*
X351790D01*
Y553212D01*
D02*
G37*
G36*
X326390D02*
X326222D01*
X323444Y552468D01*
X320954Y551030D01*
X318920Y548996D01*
X317482Y546506D01*
X316738Y543728D01*
Y543560D01*
X326390D01*
Y553212D01*
D02*
G37*
G36*
X490982D02*
X469138D01*
Y531368D01*
X490982D01*
Y553212D01*
D02*
G37*
G36*
X456098D02*
X453222D01*
X450444Y552468D01*
X447954Y551030D01*
X445920Y548996D01*
X444482Y546506D01*
X443738Y543728D01*
Y540852D01*
X444482Y538074D01*
X445920Y535584D01*
X447954Y533550D01*
X450444Y532112D01*
X453222Y531368D01*
X456098D01*
X458876Y532112D01*
X461366Y533550D01*
X463400Y535584D01*
X464838Y538074D01*
X465582Y540852D01*
Y543728D01*
X464838Y546506D01*
X463400Y548996D01*
X461366Y551030D01*
X458876Y552468D01*
X456098Y553212D01*
D02*
G37*
G36*
X430698D02*
X427822D01*
X425044Y552468D01*
X422554Y551030D01*
X420520Y548996D01*
X419082Y546506D01*
X418338Y543728D01*
Y540852D01*
X419082Y538074D01*
X420520Y535584D01*
X422554Y533550D01*
X425044Y532112D01*
X427822Y531368D01*
X430698D01*
X433476Y532112D01*
X435966Y533550D01*
X438000Y535584D01*
X439438Y538074D01*
X440182Y540852D01*
Y543728D01*
X439438Y546506D01*
X438000Y548996D01*
X435966Y551030D01*
X433476Y552468D01*
X430698Y553212D01*
D02*
G37*
G36*
X405298D02*
X402422D01*
X399644Y552468D01*
X397154Y551030D01*
X395120Y548996D01*
X393682Y546506D01*
X392938Y543728D01*
Y540852D01*
X393682Y538074D01*
X395120Y535584D01*
X397154Y533550D01*
X399644Y532112D01*
X402422Y531368D01*
X405298D01*
X408076Y532112D01*
X410566Y533550D01*
X412600Y535584D01*
X414038Y538074D01*
X414782Y540852D01*
Y543728D01*
X414038Y546506D01*
X412600Y548996D01*
X410566Y551030D01*
X408076Y552468D01*
X405298Y553212D01*
D02*
G37*
G36*
X363982Y541020D02*
X354330D01*
Y531368D01*
X354498D01*
X357276Y532112D01*
X359766Y533550D01*
X361800Y535584D01*
X363238Y538074D01*
X363982Y540852D01*
Y541020D01*
D02*
G37*
G36*
X351790D02*
X342138D01*
Y540852D01*
X342882Y538074D01*
X344320Y535584D01*
X346354Y533550D01*
X348844Y532112D01*
X351622Y531368D01*
X351790D01*
Y541020D01*
D02*
G37*
G36*
X338582D02*
X328930D01*
Y531368D01*
X329098D01*
X331876Y532112D01*
X334366Y533550D01*
X336400Y535584D01*
X337838Y538074D01*
X338582Y540852D01*
Y541020D01*
D02*
G37*
G36*
X326390D02*
X316738D01*
Y540852D01*
X317482Y538074D01*
X318920Y535584D01*
X320954Y533550D01*
X323444Y532112D01*
X326222Y531368D01*
X326390D01*
Y541020D01*
D02*
G37*
G36*
X202098Y553212D02*
X199222D01*
X196444Y552468D01*
X193954Y551030D01*
X191920Y548996D01*
X190482Y546506D01*
X189738Y543728D01*
Y540852D01*
X190482Y538074D01*
X191920Y535584D01*
X193954Y533550D01*
X196444Y532112D01*
X199222Y531368D01*
X202098D01*
X204876Y532112D01*
X207366Y533550D01*
X209400Y535584D01*
X210838Y538074D01*
X211582Y540852D01*
Y543728D01*
X210838Y546506D01*
X209400Y548996D01*
X207366Y551030D01*
X204876Y552468D01*
X202098Y553212D01*
D02*
G37*
G36*
X176698D02*
X173822D01*
X171044Y552468D01*
X168554Y551030D01*
X166520Y548996D01*
X165082Y546506D01*
X164338Y543728D01*
Y540852D01*
X165082Y538074D01*
X166520Y535584D01*
X168554Y533550D01*
X171044Y532112D01*
X173822Y531368D01*
X176698D01*
X179476Y532112D01*
X181966Y533550D01*
X184000Y535584D01*
X185438Y538074D01*
X186182Y540852D01*
Y543728D01*
X185438Y546506D01*
X184000Y548996D01*
X181966Y551030D01*
X179476Y552468D01*
X176698Y553212D01*
D02*
G37*
G36*
X151298D02*
X148422D01*
X145644Y552468D01*
X143154Y551030D01*
X141120Y548996D01*
X139682Y546506D01*
X138938Y543728D01*
Y540852D01*
X139682Y538074D01*
X141120Y535584D01*
X143154Y533550D01*
X145644Y532112D01*
X148422Y531368D01*
X151298D01*
X154076Y532112D01*
X156566Y533550D01*
X158600Y535584D01*
X160038Y538074D01*
X160782Y540852D01*
Y543728D01*
X160038Y546506D01*
X158600Y548996D01*
X156566Y551030D01*
X154076Y552468D01*
X151298Y553212D01*
D02*
G37*
G36*
X125898D02*
X123022D01*
X120244Y552468D01*
X117754Y551030D01*
X115720Y548996D01*
X114282Y546506D01*
X113538Y543728D01*
Y540852D01*
X114282Y538074D01*
X115720Y535584D01*
X117754Y533550D01*
X120244Y532112D01*
X123022Y531368D01*
X125898D01*
X128676Y532112D01*
X131166Y533550D01*
X133200Y535584D01*
X134638Y538074D01*
X135382Y540852D01*
Y543728D01*
X134638Y546506D01*
X133200Y548996D01*
X131166Y551030D01*
X128676Y552468D01*
X125898Y553212D01*
D02*
G37*
G36*
X621635Y561330D02*
X617885D01*
X614206Y560598D01*
X610741Y559163D01*
X607623Y557079D01*
X604971Y554427D01*
X602887Y551309D01*
X601452Y547844D01*
X600720Y544165D01*
Y540415D01*
X601452Y536736D01*
X602887Y533271D01*
X604971Y530153D01*
X607623Y527501D01*
X610741Y525417D01*
X614206Y523982D01*
X617885Y523250D01*
X621635D01*
X625314Y523982D01*
X628779Y525417D01*
X631897Y527501D01*
X634549Y530153D01*
X636633Y533271D01*
X638068Y536736D01*
X638800Y540415D01*
Y544165D01*
X638068Y547844D01*
X636633Y551309D01*
X634549Y554427D01*
X631897Y557079D01*
X628779Y559163D01*
X625314Y560598D01*
X621635Y561330D01*
D02*
G37*
G36*
X227498Y553212D02*
X224622D01*
X221844Y552468D01*
X219354Y551030D01*
X217320Y548996D01*
X215882Y546506D01*
X215138Y543728D01*
Y540852D01*
X215882Y538074D01*
X217320Y535584D01*
X219354Y533550D01*
X221844Y532112D01*
X221916Y532093D01*
Y483046D01*
X219349Y480479D01*
X216845Y481150D01*
X213214D01*
X209707Y480210D01*
X206563Y478395D01*
X203995Y475827D01*
X202180Y472683D01*
X201240Y469175D01*
Y465545D01*
X202180Y462037D01*
X203995Y458893D01*
X206563Y456325D01*
X209707Y454510D01*
X213214Y453570D01*
X216845D01*
X220353Y454510D01*
X223497Y456325D01*
X226065Y458893D01*
X227880Y462037D01*
X228820Y465545D01*
Y469175D01*
X227880Y472683D01*
X226194Y475604D01*
X228990Y478400D01*
X229888Y479744D01*
X230204Y481330D01*
Y532093D01*
X230276Y532112D01*
X232766Y533550D01*
X234800Y535584D01*
X236238Y538074D01*
X236982Y540852D01*
Y543728D01*
X236238Y546506D01*
X234800Y548996D01*
X232766Y551030D01*
X230276Y552468D01*
X227498Y553212D01*
D02*
G37*
G36*
X100935Y510530D02*
X97185D01*
X93506Y509798D01*
X90041Y508363D01*
X86923Y506279D01*
X84271Y503627D01*
X82187Y500509D01*
X80752Y497044D01*
X80020Y493365D01*
Y489615D01*
X80752Y485936D01*
X82187Y482471D01*
X84271Y479353D01*
X86923Y476701D01*
X90041Y474617D01*
X93506Y473182D01*
X97185Y472450D01*
X100935D01*
X104614Y473182D01*
X108079Y474617D01*
X111197Y476701D01*
X113849Y479353D01*
X115933Y482471D01*
X117368Y485936D01*
X118100Y489615D01*
Y493365D01*
X117368Y497044D01*
X115933Y500509D01*
X113849Y503627D01*
X111197Y506279D01*
X108079Y508363D01*
X104614Y509798D01*
X100935Y510530D01*
D02*
G37*
G36*
X349795Y484960D02*
X349250D01*
Y472440D01*
X361770D01*
Y472985D01*
X360830Y476493D01*
X359015Y479637D01*
X356447Y482205D01*
X353303Y484020D01*
X349795Y484960D01*
D02*
G37*
G36*
X346710D02*
X346165D01*
X342657Y484020D01*
X339513Y482205D01*
X336945Y479637D01*
X335130Y476493D01*
X334190Y472985D01*
Y472440D01*
X346710D01*
Y484960D01*
D02*
G37*
G36*
X379898Y553212D02*
X377022D01*
X374244Y552468D01*
X371754Y551030D01*
X369720Y548996D01*
X368282Y546506D01*
X367538Y543728D01*
Y540852D01*
X368282Y538074D01*
X369720Y535584D01*
X371754Y533550D01*
X374244Y532112D01*
X377022Y531368D01*
X379898D01*
X382676Y532112D01*
X382740Y532150D01*
X393836Y521054D01*
Y484336D01*
X392657Y484020D01*
X389513Y482205D01*
X386945Y479637D01*
X385130Y476493D01*
X384190Y472985D01*
Y469355D01*
X385130Y465847D01*
X386945Y462703D01*
X389513Y460135D01*
X392657Y458320D01*
X396165Y457380D01*
X399795D01*
X403303Y458320D01*
X406447Y460135D01*
X409015Y462703D01*
X410830Y465847D01*
X411770Y469355D01*
Y472985D01*
X410830Y476493D01*
X409015Y479637D01*
X406447Y482205D01*
X403303Y484020D01*
X402124Y484336D01*
Y522770D01*
X401808Y524356D01*
X400910Y525700D01*
X388600Y538010D01*
X388638Y538074D01*
X389382Y540852D01*
Y543728D01*
X388638Y546506D01*
X387200Y548996D01*
X385166Y551030D01*
X382676Y552468D01*
X379898Y553212D01*
D02*
G37*
G36*
X361770Y469900D02*
X349250D01*
Y457380D01*
X349795D01*
X353303Y458320D01*
X356447Y460135D01*
X359015Y462703D01*
X360830Y465847D01*
X361770Y469355D01*
Y469900D01*
D02*
G37*
G36*
X346710D02*
X334190D01*
Y469355D01*
X335130Y465847D01*
X336945Y462703D01*
X339513Y460135D01*
X342657Y458320D01*
X346165Y457380D01*
X346710D01*
Y469900D01*
D02*
G37*
G36*
X262382Y553212D02*
X240538D01*
Y531368D01*
X247316D01*
Y480930D01*
X247632Y479344D01*
X248530Y478000D01*
X252790Y473740D01*
X252180Y472683D01*
X251240Y469175D01*
Y465545D01*
X252180Y462037D01*
X253995Y458893D01*
X256563Y456325D01*
X259707Y454510D01*
X263214Y453570D01*
X266845D01*
X270353Y454510D01*
X273497Y456325D01*
X276065Y458893D01*
X277880Y462037D01*
X278820Y465545D01*
Y469175D01*
X277880Y472683D01*
X276065Y475827D01*
X273497Y478395D01*
X270353Y480210D01*
X266845Y481150D01*
X263214D01*
X259707Y480210D01*
X258650Y479600D01*
X255604Y482646D01*
Y531368D01*
X262382D01*
Y553212D01*
D02*
G37*
G36*
X303698D02*
X300822D01*
X298044Y552468D01*
X295554Y551030D01*
X293520Y548996D01*
X292082Y546506D01*
X291338Y543728D01*
Y540852D01*
X292082Y538074D01*
X293520Y535584D01*
X295554Y533550D01*
X298044Y532112D01*
X298116Y532093D01*
Y384744D01*
X187156D01*
X186840Y385923D01*
X185025Y389067D01*
X182457Y391635D01*
X179313Y393450D01*
X175805Y394390D01*
X172174D01*
X168667Y393450D01*
X165523Y391635D01*
X162955Y389067D01*
X161140Y385923D01*
X160200Y382416D01*
Y378784D01*
X161140Y375277D01*
X162955Y372133D01*
X165523Y369565D01*
X168667Y367750D01*
X172174Y366810D01*
X175805D01*
X179313Y367750D01*
X182457Y369565D01*
X185025Y372133D01*
X186840Y375277D01*
X187156Y376456D01*
X300474D01*
X302060Y376772D01*
X303405Y377670D01*
X305190Y379455D01*
X306088Y380800D01*
X306404Y382385D01*
Y532093D01*
X306476Y532112D01*
X308966Y533550D01*
X311000Y535584D01*
X312438Y538074D01*
X313182Y540852D01*
Y543728D01*
X312438Y546506D01*
X311000Y548996D01*
X308966Y551030D01*
X306476Y552468D01*
X303698Y553212D01*
D02*
G37*
G36*
X510540Y344258D02*
X504190D01*
Y335280D01*
X520620D01*
X520438Y336662D01*
X519415Y339134D01*
X517786Y341256D01*
X515664Y342885D01*
X513192Y343909D01*
X510540Y344258D01*
D02*
G37*
G36*
X356870D02*
X350520D01*
Y335280D01*
X366950D01*
X366768Y336662D01*
X365745Y339134D01*
X364116Y341256D01*
X361994Y342885D01*
X359522Y343909D01*
X356870Y344258D01*
D02*
G37*
G36*
X501650D02*
X495300D01*
X492648Y343909D01*
X490176Y342885D01*
X488054Y341256D01*
X486425Y339134D01*
X485401Y336662D01*
X485219Y335280D01*
X501650D01*
Y344258D01*
D02*
G37*
G36*
X347980D02*
X341630D01*
X338978Y343909D01*
X336506Y342885D01*
X334384Y341256D01*
X332755Y339134D01*
X331731Y336662D01*
X331549Y335280D01*
X347980D01*
Y344258D01*
D02*
G37*
G36*
X433070Y342988D02*
X426720D01*
Y334010D01*
X443150D01*
X442968Y335392D01*
X441945Y337864D01*
X440316Y339986D01*
X438194Y341615D01*
X435722Y342639D01*
X433070Y342988D01*
D02*
G37*
G36*
X424180D02*
X417830D01*
X415178Y342639D01*
X412706Y341615D01*
X410584Y339986D01*
X408955Y337864D01*
X407932Y335392D01*
X407749Y334010D01*
X424180D01*
Y342988D01*
D02*
G37*
G36*
X520620Y332740D02*
X504190D01*
Y323762D01*
X510540D01*
X513192Y324112D01*
X515664Y325135D01*
X517786Y326764D01*
X519415Y328886D01*
X520438Y331358D01*
X520620Y332740D01*
D02*
G37*
G36*
X501650D02*
X485219D01*
X485401Y331358D01*
X486425Y328886D01*
X488054Y326764D01*
X490176Y325135D01*
X492648Y324112D01*
X495300Y323762D01*
X501650D01*
Y332740D01*
D02*
G37*
G36*
X366950D02*
X350520D01*
Y323762D01*
X356870D01*
X359522Y324112D01*
X361994Y325135D01*
X364116Y326764D01*
X365745Y328886D01*
X366768Y331358D01*
X366950Y332740D01*
D02*
G37*
G36*
X347980D02*
X331549D01*
X331731Y331358D01*
X332755Y328886D01*
X334384Y326764D01*
X336506Y325135D01*
X338978Y324112D01*
X341630Y323762D01*
X347980D01*
Y332740D01*
D02*
G37*
G36*
X443150Y331470D02*
X426720D01*
Y322492D01*
X433070D01*
X435722Y322841D01*
X438194Y323865D01*
X440316Y325494D01*
X441945Y327616D01*
X442968Y330088D01*
X443150Y331470D01*
D02*
G37*
G36*
X424180D02*
X407749D01*
X407932Y330088D01*
X408955Y327616D01*
X410584Y325494D01*
X412706Y323865D01*
X415178Y322841D01*
X417830Y322492D01*
X424180D01*
Y331470D01*
D02*
G37*
G36*
X612686Y349070D02*
X609054D01*
X605547Y348130D01*
X602403Y346315D01*
X599835Y343747D01*
X598020Y340603D01*
X597080Y337095D01*
Y333465D01*
X598020Y329957D01*
X598630Y328900D01*
X582484Y312754D01*
X519821D01*
X519415Y313734D01*
X517786Y315856D01*
X515664Y317485D01*
X513192Y318508D01*
X510540Y318858D01*
X495300D01*
X492648Y318508D01*
X490176Y317485D01*
X488054Y315856D01*
X486425Y313734D01*
X485401Y311262D01*
X485052Y308610D01*
X485401Y305958D01*
X486425Y303486D01*
X488054Y301364D01*
X490176Y299735D01*
X492648Y298711D01*
X495300Y298362D01*
X510540D01*
X513192Y298711D01*
X515664Y299735D01*
X517786Y301364D01*
X519415Y303486D01*
X519821Y304466D01*
X584200D01*
X585786Y304782D01*
X587130Y305680D01*
X604490Y323040D01*
X605547Y322430D01*
X609054Y321490D01*
X612686D01*
X616193Y322430D01*
X619337Y324245D01*
X621905Y326813D01*
X623720Y329957D01*
X624660Y333465D01*
Y337095D01*
X623720Y340603D01*
X621905Y343747D01*
X619337Y346315D01*
X616193Y348130D01*
X612686Y349070D01*
D02*
G37*
G36*
X175805Y344390D02*
X172174D01*
X168667Y343450D01*
X165523Y341635D01*
X162955Y339067D01*
X161140Y335923D01*
X160200Y332416D01*
Y328784D01*
X161140Y325277D01*
X162955Y322133D01*
X165523Y319565D01*
X168667Y317750D01*
X172174Y316810D01*
X175805D01*
X179313Y317750D01*
X182457Y319565D01*
X185025Y322133D01*
X186840Y325277D01*
X187156Y326456D01*
X286174D01*
X306950Y305680D01*
X308294Y304782D01*
X309880Y304466D01*
X309880Y304466D01*
X332349D01*
X332755Y303486D01*
X334384Y301364D01*
X336506Y299735D01*
X338978Y298711D01*
X341630Y298362D01*
X356870D01*
X359522Y298711D01*
X361994Y299735D01*
X364116Y301364D01*
X365745Y303486D01*
X366768Y305958D01*
X367118Y308610D01*
X366768Y311262D01*
X365745Y313734D01*
X364116Y315856D01*
X361994Y317485D01*
X359522Y318508D01*
X356870Y318858D01*
X341630D01*
X338978Y318508D01*
X336506Y317485D01*
X334384Y315856D01*
X332755Y313734D01*
X332349Y312754D01*
X311596D01*
X290820Y333530D01*
X289476Y334428D01*
X287890Y334744D01*
X187156D01*
X186840Y335923D01*
X185025Y339067D01*
X182457Y341635D01*
X179313Y343450D01*
X175805Y344390D01*
D02*
G37*
G36*
X645160Y411814D02*
X483870D01*
X482284Y411498D01*
X480940Y410600D01*
X456810Y386470D01*
X455912Y385126D01*
X455596Y383540D01*
Y311484D01*
X442351D01*
X441945Y312464D01*
X440316Y314586D01*
X438194Y316215D01*
X435722Y317239D01*
X433070Y317588D01*
X417830D01*
X415178Y317239D01*
X412706Y316215D01*
X410584Y314586D01*
X408955Y312464D01*
X407932Y309992D01*
X407582Y307340D01*
X407932Y304688D01*
X408955Y302216D01*
X410584Y300094D01*
X412706Y298465D01*
X415178Y297442D01*
X417830Y297092D01*
X433070D01*
X435722Y297442D01*
X438194Y298465D01*
X440316Y300094D01*
X441945Y302216D01*
X442351Y303196D01*
X458252D01*
X459838Y303512D01*
X461182Y304410D01*
X462670Y305898D01*
X463568Y307242D01*
X463884Y308828D01*
Y381824D01*
X485586Y403526D01*
X643444D01*
X665146Y381824D01*
Y289424D01*
X624036D01*
X623720Y290603D01*
X621905Y293747D01*
X619337Y296315D01*
X616193Y298130D01*
X612686Y299070D01*
X609054D01*
X605547Y298130D01*
X602403Y296315D01*
X599835Y293747D01*
X598020Y290603D01*
X597080Y287096D01*
Y283465D01*
X598020Y279957D01*
X599835Y276813D01*
X602403Y274245D01*
X605547Y272430D01*
X609054Y271490D01*
X612686D01*
X616193Y272430D01*
X619337Y274245D01*
X621905Y276813D01*
X623720Y279957D01*
X624036Y281136D01*
X667802D01*
X669388Y281452D01*
X670732Y282350D01*
X672220Y283838D01*
X673118Y285182D01*
X673434Y286768D01*
Y383540D01*
X673118Y385126D01*
X672220Y386470D01*
X648090Y410600D01*
X646746Y411498D01*
X645160Y411814D01*
D02*
G37*
G36*
X510540Y293458D02*
X495300D01*
X492648Y293109D01*
X490176Y292085D01*
X488054Y290456D01*
X486425Y288334D01*
X486019Y287354D01*
X461228D01*
X459642Y287038D01*
X458298Y286140D01*
X456810Y284652D01*
X455912Y283308D01*
X455596Y281722D01*
Y196026D01*
X390770Y131200D01*
X389872Y129856D01*
X389556Y128270D01*
Y69887D01*
X389484Y69868D01*
X386994Y68430D01*
X384960Y66396D01*
X383522Y63906D01*
X382778Y61128D01*
Y58252D01*
X383522Y55474D01*
X384960Y52984D01*
X386994Y50950D01*
X389484Y49512D01*
X392262Y48768D01*
X395138D01*
X397916Y49512D01*
X400406Y50950D01*
X402440Y52984D01*
X403878Y55474D01*
X404622Y58252D01*
Y61128D01*
X403878Y63906D01*
X402440Y66396D01*
X400406Y68430D01*
X397916Y69868D01*
X397844Y69887D01*
Y126554D01*
X462670Y191380D01*
X463568Y192724D01*
X463884Y194310D01*
Y279066D01*
X486019D01*
X486425Y278086D01*
X488054Y275964D01*
X490176Y274335D01*
X492648Y273312D01*
X495300Y272962D01*
X510540D01*
X513192Y273312D01*
X515664Y274335D01*
X517786Y275964D01*
X519415Y278086D01*
X520438Y280558D01*
X520788Y283210D01*
X520438Y285862D01*
X519415Y288334D01*
X517786Y290456D01*
X515664Y292085D01*
X513192Y293109D01*
X510540Y293458D01*
D02*
G37*
G36*
X356870D02*
X341630D01*
X338978Y293109D01*
X336506Y292085D01*
X334384Y290456D01*
X332755Y288334D01*
X332349Y287354D01*
X241518D01*
X239932Y287038D01*
X238588Y286140D01*
X237100Y284652D01*
X236202Y283308D01*
X235886Y281722D01*
Y221426D01*
X223874Y209414D01*
X187156D01*
X186840Y210593D01*
X185025Y213737D01*
X182457Y216305D01*
X179313Y218120D01*
X175805Y219060D01*
X172174D01*
X168667Y218120D01*
X165523Y216305D01*
X162955Y213737D01*
X161140Y210593D01*
X160200Y207085D01*
Y203454D01*
X161140Y199947D01*
X162955Y196803D01*
X165523Y194235D01*
X168667Y192420D01*
X172174Y191480D01*
X175805D01*
X179313Y192420D01*
X180370Y193030D01*
X273460Y99940D01*
X274804Y99042D01*
X276390Y98726D01*
X338756D01*
Y70612D01*
X331978D01*
Y48768D01*
X353822D01*
Y70612D01*
X347044D01*
Y101084D01*
X346728Y102670D01*
X345830Y104015D01*
X344044Y105800D01*
X342700Y106698D01*
X341115Y107014D01*
X278106D01*
X186230Y198890D01*
X186840Y199947D01*
X187156Y201126D01*
X225590D01*
X227176Y201442D01*
X228520Y202340D01*
X242960Y216780D01*
X243858Y218124D01*
X244174Y219710D01*
Y279066D01*
X332349D01*
X332755Y278086D01*
X334384Y275964D01*
X336506Y274335D01*
X338978Y273312D01*
X341630Y272962D01*
X356870D01*
X359522Y273312D01*
X361994Y274335D01*
X364116Y275964D01*
X365745Y278086D01*
X366768Y280558D01*
X367118Y283210D01*
X366768Y285862D01*
X365745Y288334D01*
X364116Y290456D01*
X361994Y292085D01*
X359522Y293109D01*
X356870Y293458D01*
D02*
G37*
G36*
X175805Y269060D02*
X175260D01*
Y256540D01*
X187780D01*
Y257085D01*
X186840Y260593D01*
X185025Y263737D01*
X182457Y266305D01*
X179313Y268120D01*
X175805Y269060D01*
D02*
G37*
G36*
X172720D02*
X172174D01*
X168667Y268120D01*
X165523Y266305D01*
X162955Y263737D01*
X161140Y260593D01*
X160200Y257085D01*
Y256540D01*
X172720D01*
Y269060D01*
D02*
G37*
G36*
X187780Y254000D02*
X175260D01*
Y241480D01*
X175805D01*
X179313Y242420D01*
X182457Y244235D01*
X185025Y246803D01*
X186840Y249947D01*
X187780Y253454D01*
Y254000D01*
D02*
G37*
G36*
X172720D02*
X160200D01*
Y253454D01*
X161140Y249947D01*
X162955Y246803D01*
X165523Y244235D01*
X168667Y242420D01*
X172174Y241480D01*
X172720D01*
Y254000D01*
D02*
G37*
G36*
X100935Y231130D02*
X97185D01*
X93506Y230398D01*
X90041Y228963D01*
X86923Y226879D01*
X84271Y224227D01*
X82187Y221109D01*
X80752Y217644D01*
X80020Y213965D01*
Y210215D01*
X80752Y206536D01*
X82187Y203071D01*
X84271Y199953D01*
X86923Y197301D01*
X90041Y195217D01*
X93506Y193782D01*
X97185Y193050D01*
X100935D01*
X104614Y193782D01*
X108079Y195217D01*
X111197Y197301D01*
X113849Y199953D01*
X115933Y203071D01*
X117368Y206536D01*
X118100Y210215D01*
Y213965D01*
X117368Y217644D01*
X115933Y221109D01*
X113849Y224227D01*
X111197Y226879D01*
X108079Y228963D01*
X104614Y230398D01*
X100935Y231130D01*
D02*
G37*
G36*
X496738Y70612D02*
X496570D01*
Y60960D01*
X506222D01*
Y61128D01*
X505478Y63906D01*
X504040Y66396D01*
X502006Y68430D01*
X499516Y69868D01*
X496738Y70612D01*
D02*
G37*
G36*
X494030D02*
X493862D01*
X491084Y69868D01*
X488594Y68430D01*
X486560Y66396D01*
X485122Y63906D01*
X484378Y61128D01*
Y60960D01*
X494030D01*
Y70612D01*
D02*
G37*
G36*
X572938D02*
X570062D01*
X567284Y69868D01*
X564794Y68430D01*
X562760Y66396D01*
X561322Y63906D01*
X560578Y61128D01*
Y58252D01*
X561322Y55474D01*
X562760Y52984D01*
X564794Y50950D01*
X567284Y49512D01*
X570062Y48768D01*
X572938D01*
X575716Y49512D01*
X578206Y50950D01*
X580240Y52984D01*
X581678Y55474D01*
X582422Y58252D01*
Y61128D01*
X581678Y63906D01*
X580240Y66396D01*
X578206Y68430D01*
X575716Y69868D01*
X572938Y70612D01*
D02*
G37*
G36*
X547538D02*
X544662D01*
X541884Y69868D01*
X539394Y68430D01*
X537360Y66396D01*
X535922Y63906D01*
X535178Y61128D01*
Y58252D01*
X535922Y55474D01*
X537360Y52984D01*
X539394Y50950D01*
X541884Y49512D01*
X544662Y48768D01*
X547538D01*
X550316Y49512D01*
X552806Y50950D01*
X554840Y52984D01*
X556278Y55474D01*
X557022Y58252D01*
Y61128D01*
X556278Y63906D01*
X554840Y66396D01*
X552806Y68430D01*
X550316Y69868D01*
X547538Y70612D01*
D02*
G37*
G36*
X522138D02*
X519262D01*
X516484Y69868D01*
X513994Y68430D01*
X511960Y66396D01*
X510522Y63906D01*
X509778Y61128D01*
Y58252D01*
X510522Y55474D01*
X511960Y52984D01*
X513994Y50950D01*
X516484Y49512D01*
X519262Y48768D01*
X522138D01*
X524916Y49512D01*
X527406Y50950D01*
X529440Y52984D01*
X530878Y55474D01*
X531622Y58252D01*
Y61128D01*
X530878Y63906D01*
X529440Y66396D01*
X527406Y68430D01*
X524916Y69868D01*
X522138Y70612D01*
D02*
G37*
G36*
X506222Y58420D02*
X496570D01*
Y48768D01*
X496738D01*
X499516Y49512D01*
X502006Y50950D01*
X504040Y52984D01*
X505478Y55474D01*
X506222Y58252D01*
Y58420D01*
D02*
G37*
G36*
X494030D02*
X484378D01*
Y58252D01*
X485122Y55474D01*
X486560Y52984D01*
X488594Y50950D01*
X491084Y49512D01*
X493862Y48768D01*
X494030D01*
Y58420D01*
D02*
G37*
G36*
X471338Y70612D02*
X468462D01*
X465684Y69868D01*
X463194Y68430D01*
X461160Y66396D01*
X459722Y63906D01*
X458978Y61128D01*
Y58252D01*
X459722Y55474D01*
X461160Y52984D01*
X463194Y50950D01*
X465684Y49512D01*
X468462Y48768D01*
X471338D01*
X474116Y49512D01*
X476606Y50950D01*
X478640Y52984D01*
X480078Y55474D01*
X480822Y58252D01*
Y61128D01*
X480078Y63906D01*
X478640Y66396D01*
X476606Y68430D01*
X474116Y69868D01*
X471338Y70612D01*
D02*
G37*
G36*
X445938D02*
X443062D01*
X440284Y69868D01*
X437794Y68430D01*
X435760Y66396D01*
X434322Y63906D01*
X433578Y61128D01*
Y58252D01*
X434322Y55474D01*
X435760Y52984D01*
X437794Y50950D01*
X440284Y49512D01*
X443062Y48768D01*
X445938D01*
X448716Y49512D01*
X451206Y50950D01*
X453240Y52984D01*
X454678Y55474D01*
X455422Y58252D01*
Y61128D01*
X454678Y63906D01*
X453240Y66396D01*
X451206Y68430D01*
X448716Y69868D01*
X445938Y70612D01*
D02*
G37*
G36*
X420538D02*
X417662D01*
X414884Y69868D01*
X412394Y68430D01*
X410360Y66396D01*
X408922Y63906D01*
X408178Y61128D01*
Y58252D01*
X408922Y55474D01*
X410360Y52984D01*
X412394Y50950D01*
X414884Y49512D01*
X417662Y48768D01*
X420538D01*
X423316Y49512D01*
X425806Y50950D01*
X427840Y52984D01*
X429278Y55474D01*
X430022Y58252D01*
Y61128D01*
X429278Y63906D01*
X427840Y66396D01*
X425806Y68430D01*
X423316Y69868D01*
X420538Y70612D01*
D02*
G37*
G36*
X433070Y292188D02*
X417830D01*
X415178Y291838D01*
X412706Y290815D01*
X410584Y289186D01*
X408955Y287064D01*
X407932Y284592D01*
X407582Y281940D01*
X407932Y279288D01*
X408955Y276816D01*
X410584Y274694D01*
X412706Y273065D01*
X414956Y272133D01*
Y174436D01*
X365370Y124850D01*
X364472Y123506D01*
X364156Y121920D01*
Y69887D01*
X364084Y69868D01*
X361594Y68430D01*
X359560Y66396D01*
X358122Y63906D01*
X357378Y61128D01*
Y58252D01*
X358122Y55474D01*
X359560Y52984D01*
X361594Y50950D01*
X364084Y49512D01*
X366862Y48768D01*
X369738D01*
X372516Y49512D01*
X375006Y50950D01*
X377040Y52984D01*
X378478Y55474D01*
X379222Y58252D01*
Y61128D01*
X378478Y63906D01*
X377040Y66396D01*
X375006Y68430D01*
X372516Y69868D01*
X372444Y69887D01*
Y120204D01*
X422030Y169790D01*
X422928Y171134D01*
X423244Y172720D01*
Y271692D01*
X433070D01*
X435722Y272041D01*
X438194Y273065D01*
X440316Y274694D01*
X441945Y276816D01*
X442968Y279288D01*
X443318Y281940D01*
X442968Y284592D01*
X441945Y287064D01*
X440316Y289186D01*
X438194Y290815D01*
X435722Y291838D01*
X433070Y292188D01*
D02*
G37*
G36*
X303698Y70612D02*
X300822D01*
X298044Y69868D01*
X295554Y68430D01*
X293520Y66396D01*
X292082Y63906D01*
X291338Y61128D01*
Y58252D01*
X292082Y55474D01*
X293520Y52984D01*
X295554Y50950D01*
X298044Y49512D01*
X300822Y48768D01*
X303698D01*
X306476Y49512D01*
X308966Y50950D01*
X311000Y52984D01*
X312438Y55474D01*
X313182Y58252D01*
Y61128D01*
X312438Y63906D01*
X311000Y66396D01*
X308966Y68430D01*
X306476Y69868D01*
X303698Y70612D01*
D02*
G37*
G36*
X278298D02*
X275422D01*
X272644Y69868D01*
X270154Y68430D01*
X268120Y66396D01*
X266682Y63906D01*
X265938Y61128D01*
Y58252D01*
X266682Y55474D01*
X268120Y52984D01*
X270154Y50950D01*
X272644Y49512D01*
X275422Y48768D01*
X278298D01*
X281076Y49512D01*
X283566Y50950D01*
X285600Y52984D01*
X287038Y55474D01*
X287782Y58252D01*
Y61128D01*
X287038Y63906D01*
X285600Y66396D01*
X283566Y68430D01*
X281076Y69868D01*
X278298Y70612D01*
D02*
G37*
G36*
X252898D02*
X250022D01*
X247244Y69868D01*
X244754Y68430D01*
X242720Y66396D01*
X241282Y63906D01*
X240538Y61128D01*
Y58252D01*
X241282Y55474D01*
X242720Y52984D01*
X244754Y50950D01*
X247244Y49512D01*
X250022Y48768D01*
X252898D01*
X255676Y49512D01*
X258166Y50950D01*
X260200Y52984D01*
X261638Y55474D01*
X262382Y58252D01*
Y61128D01*
X261638Y63906D01*
X260200Y66396D01*
X258166Y68430D01*
X255676Y69868D01*
X252898Y70612D01*
D02*
G37*
G36*
X227498D02*
X224622D01*
X221844Y69868D01*
X219354Y68430D01*
X217320Y66396D01*
X215882Y63906D01*
X215138Y61128D01*
Y58252D01*
X215882Y55474D01*
X217320Y52984D01*
X219354Y50950D01*
X221844Y49512D01*
X224622Y48768D01*
X227498D01*
X230276Y49512D01*
X232766Y50950D01*
X234800Y52984D01*
X236238Y55474D01*
X236982Y58252D01*
Y61128D01*
X236238Y63906D01*
X234800Y66396D01*
X232766Y68430D01*
X230276Y69868D01*
X227498Y70612D01*
D02*
G37*
G36*
X202098D02*
X199222D01*
X196444Y69868D01*
X193954Y68430D01*
X191920Y66396D01*
X190482Y63906D01*
X189738Y61128D01*
Y58252D01*
X190482Y55474D01*
X191920Y52984D01*
X193954Y50950D01*
X196444Y49512D01*
X199222Y48768D01*
X202098D01*
X204876Y49512D01*
X207366Y50950D01*
X209400Y52984D01*
X210838Y55474D01*
X211582Y58252D01*
Y61128D01*
X210838Y63906D01*
X209400Y66396D01*
X207366Y68430D01*
X204876Y69868D01*
X202098Y70612D01*
D02*
G37*
G36*
X176698D02*
X173822D01*
X171044Y69868D01*
X168554Y68430D01*
X166520Y66396D01*
X165082Y63906D01*
X164338Y61128D01*
Y58252D01*
X165082Y55474D01*
X166520Y52984D01*
X168554Y50950D01*
X171044Y49512D01*
X173822Y48768D01*
X176698D01*
X179476Y49512D01*
X181966Y50950D01*
X184000Y52984D01*
X185438Y55474D01*
X186182Y58252D01*
Y61128D01*
X185438Y63906D01*
X184000Y66396D01*
X181966Y68430D01*
X179476Y69868D01*
X176698Y70612D01*
D02*
G37*
G36*
X74205Y170870D02*
X70574D01*
X67067Y169930D01*
X63923Y168115D01*
X61355Y165547D01*
X59540Y162403D01*
X58600Y158896D01*
Y155265D01*
X59540Y151757D01*
X61355Y148613D01*
X63923Y146045D01*
X67067Y144230D01*
X70574Y143290D01*
X74205D01*
X77713Y144230D01*
X80857Y146045D01*
X83425Y148613D01*
X85240Y151757D01*
X85556Y152936D01*
X138384D01*
X145716Y145604D01*
Y69887D01*
X145644Y69868D01*
X143154Y68430D01*
X141120Y66396D01*
X139682Y63906D01*
X138938Y61128D01*
Y58252D01*
X139682Y55474D01*
X141120Y52984D01*
X143154Y50950D01*
X145644Y49512D01*
X148422Y48768D01*
X151298D01*
X154076Y49512D01*
X156566Y50950D01*
X158600Y52984D01*
X160038Y55474D01*
X160782Y58252D01*
Y61128D01*
X160038Y63906D01*
X158600Y66396D01*
X156566Y68430D01*
X154076Y69868D01*
X154004Y69887D01*
Y147320D01*
X153688Y148906D01*
X152790Y150250D01*
X143030Y160010D01*
X141686Y160908D01*
X140100Y161224D01*
X85556D01*
X85240Y162403D01*
X83425Y165547D01*
X80857Y168115D01*
X77713Y169930D01*
X74205Y170870D01*
D02*
G37*
G36*
Y120870D02*
X70574D01*
X67067Y119930D01*
X63923Y118115D01*
X61355Y115547D01*
X59540Y112403D01*
X58600Y108896D01*
Y105265D01*
X59540Y101757D01*
X61355Y98613D01*
X63923Y96045D01*
X67067Y94230D01*
X70574Y93290D01*
X74205D01*
X77713Y94230D01*
X80857Y96045D01*
X83425Y98613D01*
X85240Y101757D01*
X85556Y102936D01*
X119804D01*
X120316Y102424D01*
Y70612D01*
X113538D01*
Y48768D01*
X135382D01*
Y70612D01*
X128604D01*
Y104140D01*
X128288Y105726D01*
X127390Y107070D01*
X124450Y110010D01*
X123106Y110908D01*
X121520Y111224D01*
X85556D01*
X85240Y112403D01*
X83425Y115547D01*
X80857Y118115D01*
X77713Y119930D01*
X74205Y120870D01*
D02*
G37*
G36*
X608935Y78730D02*
X605185D01*
X601506Y77998D01*
X598041Y76563D01*
X594923Y74479D01*
X592271Y71827D01*
X590187Y68709D01*
X588752Y65244D01*
X588020Y61565D01*
Y57815D01*
X588752Y54136D01*
X590187Y50671D01*
X592271Y47553D01*
X594923Y44901D01*
X598041Y42817D01*
X601506Y41382D01*
X605185Y40650D01*
X608935D01*
X612614Y41382D01*
X616079Y42817D01*
X619197Y44901D01*
X621849Y47553D01*
X623933Y50671D01*
X625368Y54136D01*
X626100Y57815D01*
Y61565D01*
X625368Y65244D01*
X623933Y68709D01*
X621849Y71827D01*
X619197Y74479D01*
X616079Y76563D01*
X612614Y77998D01*
X608935Y78730D01*
D02*
G37*
%LPD*%
D19*
X72390Y107080D02*
D03*
Y157080D02*
D03*
X173990Y255270D02*
D03*
Y205270D02*
D03*
X265030Y467360D02*
D03*
X215030D02*
D03*
X397980Y471170D02*
D03*
X347980D02*
D03*
X610870Y335280D02*
D03*
Y285280D02*
D03*
X173990Y330600D02*
D03*
Y380600D02*
D03*
D20*
X502920Y283210D02*
D03*
Y308610D02*
D03*
Y334010D02*
D03*
X425450Y281940D02*
D03*
Y307340D02*
D03*
Y332740D02*
D03*
X349250Y283210D02*
D03*
Y308610D02*
D03*
Y334010D02*
D03*
D21*
X403860Y542290D02*
D03*
X378460D02*
D03*
X226060D02*
D03*
X200660D02*
D03*
X175260D02*
D03*
X149860D02*
D03*
X124460D02*
D03*
X520700Y59690D02*
D03*
X149860D02*
D03*
X175260D02*
D03*
X200660D02*
D03*
X226060D02*
D03*
X251460D02*
D03*
X276860D02*
D03*
X302260D02*
D03*
X368300D02*
D03*
X393700D02*
D03*
X419100D02*
D03*
X444500D02*
D03*
X469900D02*
D03*
X353060Y542290D02*
D03*
X327660D02*
D03*
X495300Y59690D02*
D03*
X429260Y542290D02*
D03*
X302260D02*
D03*
X546100Y59690D02*
D03*
X571500D02*
D03*
X454660Y542290D02*
D03*
D22*
X251460D02*
D03*
X124460Y59690D02*
D03*
X342900D02*
D03*
X480060Y542290D02*
D03*
D23*
X99060Y212090D02*
D03*
Y491490D02*
D03*
X607060Y59690D02*
D03*
X619760Y542290D02*
D03*
D24*
X461228Y283210D02*
X502920D01*
X393700Y128270D02*
X459740Y194310D01*
Y281722D02*
X461228Y283210D01*
X459740Y194310D02*
Y281722D01*
X393700Y59690D02*
Y128270D01*
X302260Y382385D02*
Y542290D01*
X173990Y380600D02*
X300474D01*
X302260Y382385D01*
X276390Y102870D02*
X341115D01*
X342900Y59690D02*
Y101084D01*
X341115Y102870D02*
X342900Y101084D01*
X173990Y205270D02*
X276390Y102870D01*
X173990Y205270D02*
X225590D01*
X240030Y219710D01*
Y281722D01*
X241518Y283210D01*
X349250D01*
X173990Y330600D02*
X287890D01*
X309880Y308610D01*
X149860Y59690D02*
Y147320D01*
X72390Y157080D02*
X140100D01*
X149860Y147320D01*
X124460Y59690D02*
Y104140D01*
X72390Y107080D02*
X121520D01*
X124460Y104140D01*
X368300Y121920D02*
X419100Y172720D01*
Y276073D01*
X368300Y59690D02*
Y121920D01*
X669290Y286768D02*
Y383540D01*
X667802Y285280D02*
X669290Y286768D01*
X610870Y285280D02*
X667802D01*
X645160Y407670D02*
X669290Y383540D01*
X483870Y407670D02*
X645160D01*
X459740Y383540D02*
X483870Y407670D01*
X425450Y307340D02*
X458252D01*
X459740Y308828D01*
Y383540D01*
X502920Y308610D02*
X584200D01*
X610870Y335280D01*
X424967Y281940D02*
X425450D01*
X419100Y276073D02*
X424967Y281940D01*
X309880Y308610D02*
X349250D01*
X215030Y467360D02*
Y470300D01*
X226060Y481330D01*
Y542290D01*
X251460Y480930D02*
Y542290D01*
Y480930D02*
X265030Y467360D01*
X397980Y471170D02*
Y522770D01*
X378460Y542290D02*
X397980Y522770D01*
M02*
